<mxfile host="app.diagrams.net" agent="Mozilla/5.0 (Windows NT 10.0; Win64; x64) AppleWebKit/537.36 (KHTML, like Gecko) Chrome/140.0.0.0 Safari/537.36 Edg/140.0.0.0" version="28.2.5">
  <diagram name="Page-1" id="BHDDqB5gRqNZifJ1IFPo">
    <mxGraphModel dx="3968" dy="3382" grid="1" gridSize="10" guides="1" tooltips="1" connect="1" arrows="1" fold="1" page="1" pageScale="1" pageWidth="850" pageHeight="1100" math="0" shadow="0">
      <root>
        <mxCell id="0" />
        <mxCell id="1" parent="0" />
        <UserObject label="" plantUmlData="{&#xa;  &quot;data&quot;: &quot;@startuml\n&#39; Diagram Title\ntitle Collaboration Diagram - Game Sonnet (User Only)\n\n&#39; Style Enhancements\nskinparam participant {\n    BackgroundColor LightBlue\n    BorderColor Blue\n}\nskinparam actor {\n    BackgroundColor LightGreen\n    BorderColor Green\n}\nskinparam database {\n    BackgroundColor LightYellow\n    BorderColor Orange\n}\nskinparam sequence {\n    GroupHeaderFontColor #555555\n    LifeLineBorderColor #555555\n}\n\n&#39; Enable automatic hierarchical numbering for collaboration style\nautonumber \&quot;&lt;b&gt;0.&lt;/b&gt;\&quot;\n\n&#39; Define Actors and Participants (Object Organization)\nactor User\nparticipant \&quot;React UI\\n(Frontend)\&quot; as UI\nparticipant \&quot;Express Backend\\n(Server)\&quot; as Backend\nparticipant \&quot;RAWG API\\n(External Service)\&quot; as RAWG\ndatabase \&quot;MongoDB Atlas\\n(Database)\&quot; as DB\n\n== Home Page Flow ==\nUser -&gt; UI : 1. Open Home Page\nactivate UI\nUI -&gt; RAWG : 1.1. Fetch Trending Games\nUI -&gt; DB : 1.2. Fetch Suggested Games\nUI -&gt; User : 1.3. Display Home with Games\ndeactivate UI\n\n== Login/Signup Flow ==\nUser -&gt; UI : 2. Click Login/Signup\nactivate UI\nUI -&gt; Backend : 2.1. Send Credentials\nactivate Backend\nBackend -&gt; DB : 2.1.1. Validate / Save User\nactivate DB\nDB --&gt; Backend : 2.1.2. Return Success/Failure\ndeactivate DB\nBackend --&gt; UI : 2.2. Auth Success\ndeactivate Backend\nUI -&gt; User : 2.3. Show Logged-in State\ndeactivate UI\n\n== Add Game Flow ==\nUser -&gt; UI : 3. Suggest a Game (enter name)\nactivate UI\nUI -&gt; Backend : 3.1. Check if Game Exists in DB\nactivate Backend\nBackend -&gt; DB : 3.1.1. Query for game by name/slug\n\nalt Game Already Exists\n    DB --&gt; Backend : 3.1.1.1. Return Existing Game\n    Backend -&gt; DB : 3.1.1.2. Update &#39;addedBy&#39; field with username\n    DB --&gt; Backend : 3.1.1.3. Confirm Update\nelse Game Does Not Exist\n    Backend -&gt; RAWG : 3.1.2. Request Game Details from API\n    alt RAWG API Responds with Data\n        RAWG --&gt; Backend : 3.1.2.1. Return Game Data\n        Backend -&gt; DB : 3.1.2.2. Save Data to &#39;PendingGames&#39; Collection\n        DB --&gt; Backend : 3.1.2.3. Confirm Insert\n    else RAWG API Fails or No Data Found\n        Backend --&gt; UI : 3.1.2.4. Notify UI of failure\n        UI -&gt; User : 3.1.2.5. Prompt for Manual Submission\n        User -&gt; UI : 3.1.2.6. Enter Game Details Manually\n        UI -&gt; Backend : 3.1.2.7. Send Manual Game Data\n        Backend -&gt; DB : 3.1.2.8. Insert Manual Data into &#39;PendingGames&#39;\n        DB --&gt; Backend : 3.1.2.9. Confirm Insert\n    end\nend\nBackend --&gt; UI : 3.2. Send Toast Notification (\&quot;Submitted for approval!\&quot;)\ndeactivate Backend\nUI -&gt; User : 3.3. Display Notification\ndeactivate UI\n\n== Game Details &amp; Reviews Flow ==\nUser -&gt; UI : 4. Select a Game Card\nactivate UI\nUI -&gt; RAWG : 4.1. Fetch Rich Details (if API integrated)\nUI -&gt; DB : 4.2. Fetch Game Data and Reviews from DB\nUI -&gt; User : 4.3. Show Game Details and Reviews\ndeactivate UI\n\nUser -&gt; UI : 5. Submit a Review\nactivate UI\nUI -&gt; Backend : 5.1. Send Review Data (rating, comment)\nactivate Backend\nBackend -&gt; DB : 5.1.1. Find Game and Push New Review\nDB --&gt; Backend : 5.1.2. Confirm Save (OK)\nBackend --&gt; UI : 5.2. Return Updated List of Reviews\ndeactivate Backend\nUI -&gt; User : 5.3. Display Updated Reviews\ndeactivate UI\n\n@enduml\n&quot;,&#xa;  &quot;format&quot;: &quot;svg&quot;&#xa;}" id="tQs3bgNzWicKO4WoI4Gx-1">
          <mxCell style="shape=image;noLabel=1;verticalAlign=top;aspect=fixed;imageAspect=0;image=data:image/svg+xml,PHN2ZyB4bWxucz0iaHR0cDovL3d3dy53My5vcmcvMjAwMC9zdmciIHhtbG5zOnhsaW5rPSJodHRwOi8vd3d3LnczLm9yZy8xOTk5L3hsaW5rIiBjb250ZW50U3R5bGVUeXBlPSJ0ZXh0L2NzcyIgZGF0YS1kaWFncmFtLXR5cGU9IlNFUVVFTkNFIiBoZWlnaHQ9IjE1NDRweCIgcHJlc2VydmVBc3BlY3RSYXRpbz0ibm9uZSIgc3R5bGU9IndpZHRoOjEyNjJweDtoZWlnaHQ6MTU0NHB4O2JhY2tncm91bmQ6I0ZGRkZGRjsiIHZlcnNpb249IjEuMSIgdmlld0JveD0iMCAwIDEyNjIgMTU0NCIgd2lkdGg9IjEyNjJweCIgem9vbUFuZFBhbj0ibWFnbmlmeSI+PHRpdGxlPkNvbGxhYm9yYXRpb24gRGlhZ3JhbSAtIEdhbWUgU29ubmV0IChVc2VyIE9ubHkpPC90aXRsZT48ZGVmcy8+PGc+PHRleHQgZmlsbD0iIzAwMDAwMCIgZm9udC1mYW1pbHk9InNhbnMtc2VyaWYiIGZvbnQtc2l6ZT0iMTQiIGZvbnQtd2VpZ2h0PSJib2xkIiBsZW5ndGhBZGp1c3Q9InNwYWNpbmciIHRleHRMZW5ndGg9IjMyOSIgeD0iNDYyLjUiIHk9IjI4LjIzNDQiPkNvbGxhYm9yYXRpb24gRGlhZ3JhbSAtIEdhbWUgU29ubmV0IChVc2VyIE9ubHkpPC90ZXh0PjxnPjx0aXRsZT5SZWFjdCBVSTwvdGl0bGU+PHJlY3QgZmlsbD0iI0ZGRkZGRiIgaGVpZ2h0PSI4My43NDIyIiBzdHlsZT0ic3Ryb2tlOiM1NTU1NTU7c3Ryb2tlLXdpZHRoOjE7IiB3aWR0aD0iMTAiIHg9IjMzNSIgeT0iMTg4Ljc4MTMiLz48L2c+PGc+PHRpdGxlPlJlYWN0IFVJPC90aXRsZT48cmVjdCBmaWxsPSIjRkZGRkZGIiBoZWlnaHQ9IjEzOS41NzAzIiBzdHlsZT0ic3Ryb2tlOiM1NTU1NTU7c3Ryb2tlLXdpZHRoOjE7IiB3aWR0aD0iMTAiIHg9IjMzNSIgeT0iMzQyLjM1MTYiLz48L2c+PGc+PHRpdGxlPlJlYWN0IFVJPC90aXRsZT48cmVjdCBmaWxsPSIjRkZGRkZGIiBoZWlnaHQ9IjU2MS45MTQxIiBzdHlsZT0ic3Ryb2tlOiM1NTU1NTU7c3Ryb2tlLXdpZHRoOjE7IiB3aWR0aD0iMTAiIHg9IjMzNSIgeT0iNTUxLjc1Ii8+PC9nPjxnPjx0aXRsZT5SZWFjdCBVSTwvdGl0bGU+PHJlY3QgZmlsbD0iI0ZGRkZGRiIgaGVpZ2h0PSI4My43NDIyIiBzdHlsZT0ic3Ryb2tlOiM1NTU1NTU7c3Ryb2tlLXdpZHRoOjE7IiB3aWR0aD0iMTAiIHg9IjMzNSIgeT0iMTE4My40OTIyIi8+PC9nPjxnPjx0aXRsZT5SZWFjdCBVSTwvdGl0bGU+PHJlY3QgZmlsbD0iI0ZGRkZGRiIgaGVpZ2h0PSIxMzkuNTcwMyIgc3R5bGU9InN0cm9rZTojNTU1NTU1O3N0cm9rZS13aWR0aDoxOyIgd2lkdGg9IjEwIiB4PSIzMzUiIHk9IjEyOTUuMTQ4NCIvPjwvZz48Zz48dGl0bGU+RXhwcmVzcyBCYWNrZW5kPC90aXRsZT48cmVjdCBmaWxsPSIjRkZGRkZGIiBoZWlnaHQ9IjgzLjc0MjIiIHN0eWxlPSJzdHJva2U6IzU1NTU1NTtzdHJva2Utd2lkdGg6MTsiIHdpZHRoPSIxMCIgeD0iNzU2LjUiIHk9IjM3MC4yNjU2Ii8+PC9nPjxnPjx0aXRsZT5FeHByZXNzIEJhY2tlbmQ8L3RpdGxlPjxyZWN0IGZpbGw9IiNGRkZGRkYiIGhlaWdodD0iNTA2LjA4NTkiIHN0eWxlPSJzdHJva2U6IzU1NTU1NTtzdHJva2Utd2lkdGg6MTsiIHdpZHRoPSIxMCIgeD0iNzU2LjUiIHk9IjU3OS42NjQxIi8+PC9nPjxnPjx0aXRsZT5FeHByZXNzIEJhY2tlbmQ8L3RpdGxlPjxyZWN0IGZpbGw9IiNGRkZGRkYiIGhlaWdodD0iODMuNzQyMiIgc3R5bGU9InN0cm9rZTojNTU1NTU1O3N0cm9rZS13aWR0aDoxOyIgd2lkdGg9IjEwIiB4PSI3NTYuNSIgeT0iMTMyMy4wNjI1Ii8+PC9nPjxnPjx0aXRsZT5Nb25nb0RCIEF0bGFzPC90aXRsZT48cmVjdCBmaWxsPSIjRkZGRkZGIiBoZWlnaHQ9IjI3LjkxNDEiIHN0eWxlPSJzdHJva2U6IzU1NTU1NTtzdHJva2Utd2lkdGg6MTsiIHdpZHRoPSIxMCIgeD0iMTE3MS41IiB5PSIzOTguMTc5NyIvPjwvZz48cmVjdCBmaWxsPSJub25lIiBoZWlnaHQ9IjQzNi4yNTc4IiBzdHlsZT0ic3Ryb2tlOiMwMDAwMDA7c3Ryb2tlLXdpZHRoOjEuNTsiIHdpZHRoPSIxMjM1IiB4PSIxMCIgeT0iNjIyLjU3ODEiLz48cmVjdCBmaWxsPSJub25lIiBoZWlnaHQ9IjI4MC45MTQxIiBzdHlsZT0ic3Ryb2tlOiMwMDAwMDA7c3Ryb2tlLXdpZHRoOjEuNTsiIHdpZHRoPSIxMjE1IiB4PSIyMCIgeT0iNzcwLjkyMTkiLz48Zz48dGl0bGU+VXNlcjwvdGl0bGU+PHJlY3QgZmlsbD0iIzAwMDAwMCIgZmlsbC1vcGFjaXR5PSIwLjAwMDAwIiBoZWlnaHQ9IjEzMzUuNzY1NiIgd2lkdGg9IjgiIHg9IjQzIiB5PSIxMTYuOTUzMSIvPjxsaW5lIHN0eWxlPSJzdHJva2U6IzU1NTU1NTtzdHJva2Utd2lkdGg6MC41O3N0cm9rZS1kYXNoYXJyYXk6NS4wLDUuMDsiIHgxPSI0NyIgeDI9IjQ3IiB5MT0iMTE2Ljk1MzEiIHkyPSIxNDUyLjcxODgiLz48L2c+PGc+PHRpdGxlPlJlYWN0IFVJPC90aXRsZT48cmVjdCBmaWxsPSIjMDAwMDAwIiBmaWxsLW9wYWNpdHk9IjAuMDAwMDAiIGhlaWdodD0iMTMzNS43NjU2IiB3aWR0aD0iOCIgeD0iMzM2IiB5PSIxMTYuOTUzMSIvPjxsaW5lIHN0eWxlPSJzdHJva2U6IzU1NTU1NTtzdHJva2Utd2lkdGg6MC41O3N0cm9rZS1kYXNoYXJyYXk6NS4wLDUuMDsiIHgxPSIzNDAiIHgyPSIzNDAiIHkxPSIxMTYuOTUzMSIgeTI9IjE0NTIuNzE4OCIvPjwvZz48Zz48dGl0bGU+RXhwcmVzcyBCYWNrZW5kPC90aXRsZT48cmVjdCBmaWxsPSIjMDAwMDAwIiBmaWxsLW9wYWNpdHk9IjAuMDAwMDAiIGhlaWdodD0iMTMzNS43NjU2IiB3aWR0aD0iOCIgeD0iNzU3LjUiIHk9IjExNi45NTMxIi8+PGxpbmUgc3R5bGU9InN0cm9rZTojNTU1NTU1O3N0cm9rZS13aWR0aDowLjU7c3Ryb2tlLWRhc2hhcnJheTo1LjAsNS4wOyIgeDE9Ijc2MSIgeDI9Ijc2MSIgeTE9IjExNi45NTMxIiB5Mj0iMTQ1Mi43MTg4Ii8+PC9nPjxnPjx0aXRsZT5SQVdHIEFQSTwvdGl0bGU+PHJlY3QgZmlsbD0iIzAwMDAwMCIgZmlsbC1vcGFjaXR5PSIwLjAwMDAwIiBoZWlnaHQ9IjEzMzUuNzY1NiIgd2lkdGg9IjgiIHg9IjEwNDQiIHk9IjExNi45NTMxIi8+PGxpbmUgc3R5bGU9InN0cm9rZTojNTU1NTU1O3N0cm9rZS13aWR0aDowLjU7c3Ryb2tlLWRhc2hhcnJheTo1LjAsNS4wOyIgeDE9IjEwNDgiIHgyPSIxMDQ4IiB5MT0iMTE2Ljk1MzEiIHkyPSIxNDUyLjcxODgiLz48L2c+PGc+PHRpdGxlPk1vbmdvREIgQXRsYXM8L3RpdGxlPjxyZWN0IGZpbGw9IiMwMDAwMDAiIGZpbGwtb3BhY2l0eT0iMC4wMDAwMCIgaGVpZ2h0PSIxMzM1Ljc2NTYiIHdpZHRoPSI4IiB4PSIxMTcyLjUiIHk9IjExNi45NTMxIi8+PGxpbmUgc3R5bGU9InN0cm9rZTojNTU1NTU1O3N0cm9rZS13aWR0aDowLjU7c3Ryb2tlLWRhc2hhcnJheTo1LjAsNS4wOyIgeDE9IjExNzYiIHgyPSIxMTc2IiB5MT0iMTE2Ljk1MzEiIHkyPSIxNDUyLjcxODgiLz48L2c+PGcgY2xhc3M9InBhcnRpY2lwYW50IHBhcnRpY2lwYW50LWhlYWQiIGRhdGEtcGFydGljaXBhbnQ9IlVzZXIiPjx0ZXh0IGZpbGw9IiMwMDAwMDAiIGZvbnQtZmFtaWx5PSJzYW5zLXNlcmlmIiBmb250LXNpemU9IjE0IiBsZW5ndGhBZGp1c3Q9InNwYWNpbmciIHRleHRMZW5ndGg9IjI4IiB4PSIzMCIgeT0iMTE1LjIwMzEiPlVzZXI8L3RleHQ+PGVsbGlwc2UgY3g9IjQ3IiBjeT0iNTAuNDY4OCIgZmlsbD0iIzkwRUU5MCIgcng9IjgiIHJ5PSI4IiBzdHlsZT0ic3Ryb2tlOiMwMDgwMDA7c3Ryb2tlLXdpZHRoOjAuNTsiLz48cGF0aCBkPSJNNDcsNTguNDY4OCBMNDcsODUuNDY4OCBNMzQsNjYuNDY4OCBMNjAsNjYuNDY4OCBNNDcsODUuNDY4OCBMMzQsMTAwLjQ2ODggTTQ3LDg1LjQ2ODggTDYwLDEwMC40Njg4IiBmaWxsPSJub25lIiBzdHlsZT0ic3Ryb2tlOiMwMDgwMDA7c3Ryb2tlLXdpZHRoOjAuNTsiLz48L2c+PGcgY2xhc3M9InBhcnRpY2lwYW50IHBhcnRpY2lwYW50LXRhaWwiIGRhdGEtcGFydGljaXBhbnQ9IlVzZXIiPjx0ZXh0IGZpbGw9IiMwMDAwMDAiIGZvbnQtZmFtaWx5PSJzYW5zLXNlcmlmIiBmb250LXNpemU9IjE0IiBsZW5ndGhBZGp1c3Q9InNwYWNpbmciIHRleHRMZW5ndGg9IjI4IiB4PSIzMCIgeT0iMTQ2NC45NTMxIj5Vc2VyPC90ZXh0PjxlbGxpcHNlIGN4PSI0NyIgY3k9IjE0NzUuMjAzMSIgZmlsbD0iIzkwRUU5MCIgcng9IjgiIHJ5PSI4IiBzdHlsZT0ic3Ryb2tlOiMwMDgwMDA7c3Ryb2tlLXdpZHRoOjAuNTsiLz48cGF0aCBkPSJNNDcsMTQ4My4yMDMxIEw0NywxNTEwLjIwMzEgTTM0LDE0OTEuMjAzMSBMNjAsMTQ5MS4yMDMxIE00NywxNTEwLjIwMzEgTDM0LDE1MjUuMjAzMSBNNDcsMTUxMC4yMDMxIEw2MCwxNTI1LjIwMzEiIGZpbGw9Im5vbmUiIHN0eWxlPSJzdHJva2U6IzAwODAwMDtzdHJva2Utd2lkdGg6MC41OyIvPjwvZz48ZyBjbGFzcz0icGFydGljaXBhbnQgcGFydGljaXBhbnQtaGVhZCIgZGF0YS1wYXJ0aWNpcGFudD0iVUkiPjxyZWN0IGZpbGw9IiNBREQ4RTYiIGhlaWdodD0iNDMuOTY4OCIgcng9IjIuNSIgcnk9IjIuNSIgc3R5bGU9InN0cm9rZTojMDAwMEZGO3N0cm9rZS13aWR0aDowLjU7IiB3aWR0aD0iODQiIHg9IjI5OCIgeT0iNzEuOTg0NCIvPjx0ZXh0IGZpbGw9IiMwMDAwMDAiIGZvbnQtZmFtaWx5PSJzYW5zLXNlcmlmIiBmb250LXNpemU9IjE0IiBsZW5ndGhBZGp1c3Q9InNwYWNpbmciIHRleHRMZW5ndGg9IjU2IiB4PSIzMTIiIHk9IjkyLjIxODgiPlJlYWN0IFVJPC90ZXh0Pjx0ZXh0IGZpbGw9IiMwMDAwMDAiIGZvbnQtZmFtaWx5PSJzYW5zLXNlcmlmIiBmb250LXNpemU9IjE0IiBsZW5ndGhBZGp1c3Q9InNwYWNpbmciIHRleHRMZW5ndGg9IjcwIiB4PSIzMDUiIHk9IjEwNy4yMDMxIj4oRnJvbnRlbmQpPC90ZXh0PjwvZz48ZyBjbGFzcz0icGFydGljaXBhbnQgcGFydGljaXBhbnQtdGFpbCIgZGF0YS1wYXJ0aWNpcGFudD0iVUkiPjxyZWN0IGZpbGw9IiNBREQ4RTYiIGhlaWdodD0iNDMuOTY4OCIgcng9IjIuNSIgcnk9IjIuNSIgc3R5bGU9InN0cm9rZTojMDAwMEZGO3N0cm9rZS13aWR0aDowLjU7IiB3aWR0aD0iODQiIHg9IjI5OCIgeT0iMTQ1MS43MTg4Ii8+PHRleHQgZmlsbD0iIzAwMDAwMCIgZm9udC1mYW1pbHk9InNhbnMtc2VyaWYiIGZvbnQtc2l6ZT0iMTQiIGxlbmd0aEFkanVzdD0ic3BhY2luZyIgdGV4dExlbmd0aD0iNTYiIHg9IjMxMiIgeT0iMTQ3MS45NTMxIj5SZWFjdCBVSTwvdGV4dD48dGV4dCBmaWxsPSIjMDAwMDAwIiBmb250LWZhbWlseT0ic2Fucy1zZXJpZiIgZm9udC1zaXplPSIxNCIgbGVuZ3RoQWRqdXN0PSJzcGFjaW5nIiB0ZXh0TGVuZ3RoPSI3MCIgeD0iMzA1IiB5PSIxNDg2LjkzNzUiPihGcm9udGVuZCk8L3RleHQ+PC9nPjxnIGNsYXNzPSJwYXJ0aWNpcGFudCBwYXJ0aWNpcGFudC1oZWFkIiBkYXRhLXBhcnRpY2lwYW50PSJCYWNrZW5kIj48cmVjdCBmaWxsPSIjQUREOEU2IiBoZWlnaHQ9IjQzLjk2ODgiIHJ4PSIyLjUiIHJ5PSIyLjUiIHN0eWxlPSJzdHJva2U6IzAwMDBGRjtzdHJva2Utd2lkdGg6MC41OyIgd2lkdGg9IjExOSIgeD0iNzAyIiB5PSI3MS45ODQ0Ii8+PHRleHQgZmlsbD0iIzAwMDAwMCIgZm9udC1mYW1pbHk9InNhbnMtc2VyaWYiIGZvbnQtc2l6ZT0iMTQiIGxlbmd0aEFkanVzdD0ic3BhY2luZyIgdGV4dExlbmd0aD0iMTA1IiB4PSI3MDkiIHk9IjkyLjIxODgiPkV4cHJlc3MgQmFja2VuZDwvdGV4dD48dGV4dCBmaWxsPSIjMDAwMDAwIiBmb250LWZhbWlseT0ic2Fucy1zZXJpZiIgZm9udC1zaXplPSIxNCIgbGVuZ3RoQWRqdXN0PSJzcGFjaW5nIiB0ZXh0TGVuZ3RoPSI1NiIgeD0iNzMzLjUiIHk9IjEwNy4yMDMxIj4oU2VydmVyKTwvdGV4dD48L2c+PGcgY2xhc3M9InBhcnRpY2lwYW50IHBhcnRpY2lwYW50LXRhaWwiIGRhdGEtcGFydGljaXBhbnQ9IkJhY2tlbmQiPjxyZWN0IGZpbGw9IiNBREQ4RTYiIGhlaWdodD0iNDMuOTY4OCIgcng9IjIuNSIgcnk9IjIuNSIgc3R5bGU9InN0cm9rZTojMDAwMEZGO3N0cm9rZS13aWR0aDowLjU7IiB3aWR0aD0iMTE5IiB4PSI3MDIiIHk9IjE0NTEuNzE4OCIvPjx0ZXh0IGZpbGw9IiMwMDAwMDAiIGZvbnQtZmFtaWx5PSJzYW5zLXNlcmlmIiBmb250LXNpemU9IjE0IiBsZW5ndGhBZGp1c3Q9InNwYWNpbmciIHRleHRMZW5ndGg9IjEwNSIgeD0iNzA5IiB5PSIxNDcxLjk1MzEiPkV4cHJlc3MgQmFja2VuZDwvdGV4dD48dGV4dCBmaWxsPSIjMDAwMDAwIiBmb250LWZhbWlseT0ic2Fucy1zZXJpZiIgZm9udC1zaXplPSIxNCIgbGVuZ3RoQWRqdXN0PSJzcGFjaW5nIiB0ZXh0TGVuZ3RoPSI1NiIgeD0iNzMzLjUiIHk9IjE0ODYuOTM3NSI+KFNlcnZlcik8L3RleHQ+PC9nPjxnIGNsYXNzPSJwYXJ0aWNpcGFudCBwYXJ0aWNpcGFudC1oZWFkIiBkYXRhLXBhcnRpY2lwYW50PSJSQVdHIj48cmVjdCBmaWxsPSIjQUREOEU2IiBoZWlnaHQ9IjQzLjk2ODgiIHJ4PSIyLjUiIHJ5PSIyLjUiIHN0eWxlPSJzdHJva2U6IzAwMDBGRjtzdHJva2Utd2lkdGg6MC41OyIgd2lkdGg9IjE0MCIgeD0iOTc4IiB5PSI3MS45ODQ0Ii8+PHRleHQgZmlsbD0iIzAwMDAwMCIgZm9udC1mYW1pbHk9InNhbnMtc2VyaWYiIGZvbnQtc2l6ZT0iMTQiIGxlbmd0aEFkanVzdD0ic3BhY2luZyIgdGV4dExlbmd0aD0iNTYiIHg9IjEwMjAiIHk9IjkyLjIxODgiPlJBV0cgQVBJPC90ZXh0Pjx0ZXh0IGZpbGw9IiMwMDAwMDAiIGZvbnQtZmFtaWx5PSJzYW5zLXNlcmlmIiBmb250LXNpemU9IjE0IiBsZW5ndGhBZGp1c3Q9InNwYWNpbmciIHRleHRMZW5ndGg9IjEyNiIgeD0iOTg1IiB5PSIxMDcuMjAzMSI+KEV4dGVybmFsIFNlcnZpY2UpPC90ZXh0PjwvZz48ZyBjbGFzcz0icGFydGljaXBhbnQgcGFydGljaXBhbnQtdGFpbCIgZGF0YS1wYXJ0aWNpcGFudD0iUkFXRyI+PHJlY3QgZmlsbD0iI0FERDhFNiIgaGVpZ2h0PSI0My45Njg4IiByeD0iMi41IiByeT0iMi41IiBzdHlsZT0ic3Ryb2tlOiMwMDAwRkY7c3Ryb2tlLXdpZHRoOjAuNTsiIHdpZHRoPSIxNDAiIHg9Ijk3OCIgeT0iMTQ1MS43MTg4Ii8+PHRleHQgZmlsbD0iIzAwMDAwMCIgZm9udC1mYW1pbHk9InNhbnMtc2VyaWYiIGZvbnQtc2l6ZT0iMTQiIGxlbmd0aEFkanVzdD0ic3BhY2luZyIgdGV4dExlbmd0aD0iNTYiIHg9IjEwMjAiIHk9IjE0NzEuOTUzMSI+UkFXRyBBUEk8L3RleHQ+PHRleHQgZmlsbD0iIzAwMDAwMCIgZm9udC1mYW1pbHk9InNhbnMtc2VyaWYiIGZvbnQtc2l6ZT0iMTQiIGxlbmd0aEFkanVzdD0ic3BhY2luZyIgdGV4dExlbmd0aD0iMTI2IiB4PSI5ODUiIHk9IjE0ODYuOTM3NSI+KEV4dGVybmFsIFNlcnZpY2UpPC90ZXh0PjwvZz48ZyBjbGFzcz0icGFydGljaXBhbnQgcGFydGljaXBhbnQtaGVhZCIgZGF0YS1wYXJ0aWNpcGFudD0iREIiPjx0ZXh0IGZpbGw9IiMwMDAwMDAiIGZvbnQtZmFtaWx5PSJzYW5zLXNlcmlmIiBmb250LXNpemU9IjE0IiBsZW5ndGhBZGp1c3Q9InNwYWNpbmciIHRleHRMZW5ndGg9IjkxIiB4PSIxMTI4IiB5PSIxMDAuMjE4OCI+TW9uZ29EQiBBdGxhczwvdGV4dD48dGV4dCBmaWxsPSIjMDAwMDAwIiBmb250LWZhbWlseT0ic2Fucy1zZXJpZiIgZm9udC1zaXplPSIxNCIgbGVuZ3RoQWRqdXN0PSJzcGFjaW5nIiB0ZXh0TGVuZ3RoPSI3MCIgeD0iMTEzOC41IiB5PSIxMTUuMjAzMSI+KERhdGFiYXNlKTwvdGV4dD48cGF0aCBkPSJNMTE1OC41LDUwLjk4NDQgQzExNTguNSw0MC45ODQ0IDExNzYuNSw0MC45ODQ0IDExNzYuNSw0MC45ODQ0IEMxMTc2LjUsNDAuOTg0NCAxMTk0LjUsNDAuOTg0NCAxMTk0LjUsNTAuOTg0NCBMMTE5NC41LDc2Ljk4NDQgQzExOTQuNSw4Ni45ODQ0IDExNzYuNSw4Ni45ODQ0IDExNzYuNSw4Ni45ODQ0IEMxMTc2LjUsODYuOTg0NCAxMTU4LjUsODYuOTg0NCAxMTU4LjUsNzYuOTg0NCBMMTE1OC41LDUwLjk4NDQiIGZpbGw9IiNGRkZGRTAiIHN0eWxlPSJzdHJva2U6I0ZGQTUwMDtzdHJva2Utd2lkdGg6MS41OyIvPjxwYXRoIGQ9Ik0xMTU4LjUsNTAuOTg0NCBDMTE1OC41LDYwLjk4NDQgMTE3Ni41LDYwLjk4NDQgMTE3Ni41LDYwLjk4NDQgQzExNzYuNSw2MC45ODQ0IDExOTQuNSw2MC45ODQ0IDExOTQuNSw1MC45ODQ0IiBmaWxsPSJub25lIiBzdHlsZT0ic3Ryb2tlOiNGRkE1MDA7c3Ryb2tlLXdpZHRoOjEuNTsiLz48L2c+PGcgY2xhc3M9InBhcnRpY2lwYW50IHBhcnRpY2lwYW50LXRhaWwiIGRhdGEtcGFydGljaXBhbnQ9IkRCIj48dGV4dCBmaWxsPSIjMDAwMDAwIiBmb250LWZhbWlseT0ic2Fucy1zZXJpZiIgZm9udC1zaXplPSIxNCIgbGVuZ3RoQWRqdXN0PSJzcGFjaW5nIiB0ZXh0TGVuZ3RoPSI5MSIgeD0iMTEyOCIgeT0iMTQ2NC45NTMxIj5Nb25nb0RCIEF0bGFzPC90ZXh0Pjx0ZXh0IGZpbGw9IiMwMDAwMDAiIGZvbnQtZmFtaWx5PSJzYW5zLXNlcmlmIiBmb250LXNpemU9IjE0IiBsZW5ndGhBZGp1c3Q9InNwYWNpbmciIHRleHRMZW5ndGg9IjcwIiB4PSIxMTM4LjUiIHk9IjE0NzkuOTM3NSI+KERhdGFiYXNlKTwvdGV4dD48cGF0aCBkPSJNMTE1OC41LDE0OTEuNjg3NSBDMTE1OC41LDE0ODEuNjg3NSAxMTc2LjUsMTQ4MS42ODc1IDExNzYuNSwxNDgxLjY4NzUgQzExNzYuNSwxNDgxLjY4NzUgMTE5NC41LDE0ODEuNjg3NSAxMTk0LjUsMTQ5MS42ODc1IEwxMTk0LjUsMTUxNy42ODc1IEMxMTk0LjUsMTUyNy42ODc1IDExNzYuNSwxNTI3LjY4NzUgMTE3Ni41LDE1MjcuNjg3NSBDMTE3Ni41LDE1MjcuNjg3NSAxMTU4LjUsMTUyNy42ODc1IDExNTguNSwxNTE3LjY4NzUgTDExNTguNSwxNDkxLjY4NzUiIGZpbGw9IiNGRkZGRTAiIHN0eWxlPSJzdHJva2U6I0ZGQTUwMDtzdHJva2Utd2lkdGg6MS41OyIvPjxwYXRoIGQ9Ik0xMTU4LjUsMTQ5MS42ODc1IEMxMTU4LjUsMTUwMS42ODc1IDExNzYuNSwxNTAxLjY4NzUgMTE3Ni41LDE1MDEuNjg3NSBDMTE3Ni41LDE1MDEuNjg3NSAxMTk0LjUsMTUwMS42ODc1IDExOTQuNSwxNDkxLjY4NzUiIGZpbGw9Im5vbmUiIHN0eWxlPSJzdHJva2U6I0ZGQTUwMDtzdHJva2Utd2lkdGg6MS41OyIvPjwvZz48Zz48dGl0bGU+UmVhY3QgVUk8L3RpdGxlPjxyZWN0IGZpbGw9IiNGRkZGRkYiIGhlaWdodD0iODMuNzQyMiIgc3R5bGU9InN0cm9rZTojNTU1NTU1O3N0cm9rZS13aWR0aDoxOyIgd2lkdGg9IjEwIiB4PSIzMzUiIHk9IjE4OC43ODEzIi8+PC9nPjxnPjx0aXRsZT5SZWFjdCBVSTwvdGl0bGU+PHJlY3QgZmlsbD0iI0ZGRkZGRiIgaGVpZ2h0PSIxMzkuNTcwMyIgc3R5bGU9InN0cm9rZTojNTU1NTU1O3N0cm9rZS13aWR0aDoxOyIgd2lkdGg9IjEwIiB4PSIzMzUiIHk9IjM0Mi4zNTE2Ii8+PC9nPjxnPjx0aXRsZT5SZWFjdCBVSTwvdGl0bGU+PHJlY3QgZmlsbD0iI0ZGRkZGRiIgaGVpZ2h0PSI1NjEuOTE0MSIgc3R5bGU9InN0cm9rZTojNTU1NTU1O3N0cm9rZS13aWR0aDoxOyIgd2lkdGg9IjEwIiB4PSIzMzUiIHk9IjU1MS43NSIvPjwvZz48Zz48dGl0bGU+UmVhY3QgVUk8L3RpdGxlPjxyZWN0IGZpbGw9IiNGRkZGRkYiIGhlaWdodD0iODMuNzQyMiIgc3R5bGU9InN0cm9rZTojNTU1NTU1O3N0cm9rZS13aWR0aDoxOyIgd2lkdGg9IjEwIiB4PSIzMzUiIHk9IjExODMuNDkyMiIvPjwvZz48Zz48dGl0bGU+UmVhY3QgVUk8L3RpdGxlPjxyZWN0IGZpbGw9IiNGRkZGRkYiIGhlaWdodD0iMTM5LjU3MDMiIHN0eWxlPSJzdHJva2U6IzU1NTU1NTtzdHJva2Utd2lkdGg6MTsiIHdpZHRoPSIxMCIgeD0iMzM1IiB5PSIxMjk1LjE0ODQiLz48L2c+PGc+PHRpdGxlPkV4cHJlc3MgQmFja2VuZDwvdGl0bGU+PHJlY3QgZmlsbD0iI0ZGRkZGRiIgaGVpZ2h0PSI4My43NDIyIiBzdHlsZT0ic3Ryb2tlOiM1NTU1NTU7c3Ryb2tlLXdpZHRoOjE7IiB3aWR0aD0iMTAiIHg9Ijc1Ni41IiB5PSIzNzAuMjY1NiIvPjwvZz48Zz48dGl0bGU+RXhwcmVzcyBCYWNrZW5kPC90aXRsZT48cmVjdCBmaWxsPSIjRkZGRkZGIiBoZWlnaHQ9IjUwNi4wODU5IiBzdHlsZT0ic3Ryb2tlOiM1NTU1NTU7c3Ryb2tlLXdpZHRoOjE7IiB3aWR0aD0iMTAiIHg9Ijc1Ni41IiB5PSI1NzkuNjY0MSIvPjwvZz48Zz48dGl0bGU+RXhwcmVzcyBCYWNrZW5kPC90aXRsZT48cmVjdCBmaWxsPSIjRkZGRkZGIiBoZWlnaHQ9IjgzLjc0MjIiIHN0eWxlPSJzdHJva2U6IzU1NTU1NTtzdHJva2Utd2lkdGg6MTsiIHdpZHRoPSIxMCIgeD0iNzU2LjUiIHk9IjEzMjMuMDYyNSIvPjwvZz48Zz48dGl0bGU+TW9uZ29EQiBBdGxhczwvdGl0bGU+PHJlY3QgZmlsbD0iI0ZGRkZGRiIgaGVpZ2h0PSIyNy45MTQxIiBzdHlsZT0ic3Ryb2tlOiM1NTU1NTU7c3Ryb2tlLXdpZHRoOjE7IiB3aWR0aD0iMTAiIHg9IjExNzEuNSIgeT0iMzk4LjE3OTciLz48L2c+PHJlY3QgZmlsbD0iI0VFRUVFRSIgaGVpZ2h0PSIzIiBzdHlsZT0ic3Ryb2tlOiNFRUVFRUU7c3Ryb2tlLXdpZHRoOjE7IiB3aWR0aD0iMTI1NSIgeD0iMCIgeT0iMTQ2LjkxMDIiLz48bGluZSBzdHlsZT0ic3Ryb2tlOiMwMDAwMDA7c3Ryb2tlLXdpZHRoOjE7IiB4MT0iMCIgeDI9IjEyNTUiIHkxPSIxNDYuOTEwMiIgeTI9IjE0Ni45MTAyIi8+PGxpbmUgc3R5bGU9InN0cm9rZTojMDAwMDAwO3N0cm9rZS13aWR0aDoxOyIgeDE9IjAiIHgyPSIxMjU1IiB5MT0iMTQ5LjkxMDIiIHkyPSIxNDkuOTEwMiIvPjxyZWN0IGZpbGw9IiNFRUVFRUUiIGhlaWdodD0iMjEuOTE0MSIgc3R5bGU9InN0cm9rZTojMDAwMDAwO3N0cm9rZS13aWR0aDoyOyIgd2lkdGg9IjExMS41IiB4PSI1NzEuNzUiIHk9IjEzNi45NTMxIi8+PHRleHQgZmlsbD0iIzAwMDAwMCIgZm9udC1mYW1pbHk9InNhbnMtc2VyaWYiIGZvbnQtc2l6ZT0iMTMiIGZvbnQtd2VpZ2h0PSJib2xkIiBsZW5ndGhBZGp1c3Q9InNwYWNpbmciIHRleHRMZW5ndGg9IjkxIiB4PSI1NzcuNzUiIHk9IjE1My4yNDIyIj5Ib21lIFBhZ2UgRmxvdzwvdGV4dD48ZyBjbGFzcz0ibWVzc2FnZSIgZGF0YS1wYXJ0aWNpcGFudC0xPSJVc2VyIiBkYXRhLXBhcnRpY2lwYW50LTI9IlVJIj48cG9seWdvbiBmaWxsPSIjMTgxODE4IiBwb2ludHM9IjMyMywxODQuNzgxMywzMzMsMTg4Ljc4MTMsMzIzLDE5Mi43ODEzLDMyNywxODguNzgxMyIgc3R5bGU9InN0cm9rZTojMTgxODE4O3N0cm9rZS13aWR0aDoxOyIvPjxsaW5lIHN0eWxlPSJzdHJva2U6IzE4MTgxODtzdHJva2Utd2lkdGg6MTsiIHgxPSI0NyIgeDI9IjMyOSIgeTE9IjE4OC43ODEzIiB5Mj0iMTg4Ljc4MTMiLz48dGV4dCBmaWxsPSIjMDAwMDAwIiBmb250LWZhbWlseT0ic2Fucy1zZXJpZiIgZm9udC1zaXplPSIxMyIgZm9udC13ZWlnaHQ9ImJvbGQiIGxlbmd0aEFkanVzdD0ic3BhY2luZyIgdGV4dExlbmd0aD0iMTMiIHg9IjU0IiB5PSIxODUuMTU2MyI+MS48L3RleHQ+PHRleHQgZmlsbD0iIzAwMDAwMCIgZm9udC1mYW1pbHk9InNhbnMtc2VyaWYiIGZvbnQtc2l6ZT0iMTMiIGxlbmd0aEFkanVzdD0ic3BhY2luZyIgdGV4dExlbmd0aD0iMTEwLjUiIHg9IjcxIiB5PSIxODUuMTU2MyI+MS4gT3BlbiBIb21lIFBhZ2U8L3RleHQ+PC9nPjxnIGNsYXNzPSJtZXNzYWdlIiBkYXRhLXBhcnRpY2lwYW50LTE9IlVJIiBkYXRhLXBhcnRpY2lwYW50LTI9IlJBV0ciPjxwb2x5Z29uIGZpbGw9IiMxODE4MTgiIHBvaW50cz0iMTAzNiwyMTIuNjk1MywxMDQ2LDIxNi42OTUzLDEwMzYsMjIwLjY5NTMsMTA0MCwyMTYuNjk1MyIgc3R5bGU9InN0cm9rZTojMTgxODE4O3N0cm9rZS13aWR0aDoxOyIvPjxsaW5lIHN0eWxlPSJzdHJva2U6IzE4MTgxODtzdHJva2Utd2lkdGg6MTsiIHgxPSIzNDUiIHgyPSIxMDQyIiB5MT0iMjE2LjY5NTMiIHkyPSIyMTYuNjk1MyIvPjx0ZXh0IGZpbGw9IiMwMDAwMDAiIGZvbnQtZmFtaWx5PSJzYW5zLXNlcmlmIiBmb250LXNpemU9IjEzIiBmb250LXdlaWdodD0iYm9sZCIgbGVuZ3RoQWRqdXN0PSJzcGFjaW5nIiB0ZXh0TGVuZ3RoPSIxMyIgeD0iMzUyIiB5PSIyMTMuMDcwMyI+Mi48L3RleHQ+PHRleHQgZmlsbD0iIzAwMDAwMCIgZm9udC1mYW1pbHk9InNhbnMtc2VyaWYiIGZvbnQtc2l6ZT0iMTMiIGxlbmd0aEFkanVzdD0ic3BhY2luZyIgdGV4dExlbmd0aD0iMTYyLjUiIHg9IjM2OSIgeT0iMjEzLjA3MDMiPjEuMS4gRmV0Y2ggVHJlbmRpbmcgR2FtZXM8L3RleHQ+PC9nPjxnIGNsYXNzPSJtZXNzYWdlIiBkYXRhLXBhcnRpY2lwYW50LTE9IlVJIiBkYXRhLXBhcnRpY2lwYW50LTI9IkRCIj48cG9seWdvbiBmaWxsPSIjMTgxODE4IiBwb2ludHM9IjExNjQuNSwyNDAuNjA5NCwxMTc0LjUsMjQ0LjYwOTQsMTE2NC41LDI0OC42MDk0LDExNjguNSwyNDQuNjA5NCIgc3R5bGU9InN0cm9rZTojMTgxODE4O3N0cm9rZS13aWR0aDoxOyIvPjxsaW5lIHN0eWxlPSJzdHJva2U6IzE4MTgxODtzdHJva2Utd2lkdGg6MTsiIHgxPSIzNDUiIHgyPSIxMTcwLjUiIHkxPSIyNDQuNjA5NCIgeTI9IjI0NC42MDk0Ii8+PHRleHQgZmlsbD0iIzAwMDAwMCIgZm9udC1mYW1pbHk9InNhbnMtc2VyaWYiIGZvbnQtc2l6ZT0iMTMiIGZvbnQtd2VpZ2h0PSJib2xkIiBsZW5ndGhBZGp1c3Q9InNwYWNpbmciIHRleHRMZW5ndGg9IjEzIiB4PSIzNTIiIHk9IjI0MC45ODQ0Ij4zLjwvdGV4dD48dGV4dCBmaWxsPSIjMDAwMDAwIiBmb250LWZhbWlseT0ic2Fucy1zZXJpZiIgZm9udC1zaXplPSIxMyIgbGVuZ3RoQWRqdXN0PSJzcGFjaW5nIiB0ZXh0TGVuZ3RoPSIxNjkiIHg9IjM2OSIgeT0iMjQwLjk4NDQiPjEuMi4gRmV0Y2ggU3VnZ2VzdGVkIEdhbWVzPC90ZXh0PjwvZz48ZyBjbGFzcz0ibWVzc2FnZSIgZGF0YS1wYXJ0aWNpcGFudC0xPSJVSSIgZGF0YS1wYXJ0aWNpcGFudC0yPSJVc2VyIj48cG9seWdvbiBmaWxsPSIjMTgxODE4IiBwb2ludHM9IjU4LDI2OC41MjM0LDQ4LDI3Mi41MjM0LDU4LDI3Ni41MjM0LDU0LDI3Mi41MjM0IiBzdHlsZT0ic3Ryb2tlOiMxODE4MTg7c3Ryb2tlLXdpZHRoOjE7Ii8+PGxpbmUgc3R5bGU9InN0cm9rZTojMTgxODE4O3N0cm9rZS13aWR0aDoxOyIgeDE9IjUyIiB4Mj0iMzM5IiB5MT0iMjcyLjUyMzQiIHkyPSIyNzIuNTIzNCIvPjx0ZXh0IGZpbGw9IiMwMDAwMDAiIGZvbnQtZmFtaWx5PSJzYW5zLXNlcmlmIiBmb250LXNpemU9IjEzIiBmb250LXdlaWdodD0iYm9sZCIgbGVuZ3RoQWRqdXN0PSJzcGFjaW5nIiB0ZXh0TGVuZ3RoPSIxMyIgeD0iNjQiIHk9IjI2OC44OTg0Ij40LjwvdGV4dD48dGV4dCBmaWxsPSIjMDAwMDAwIiBmb250LWZhbWlseT0ic2Fucy1zZXJpZiIgZm9udC1zaXplPSIxMyIgbGVuZ3RoQWRqdXN0PSJzcGFjaW5nIiB0ZXh0TGVuZ3RoPSIxODIiIHg9IjgxIiB5PSIyNjguODk4NCI+MS4zLiBEaXNwbGF5IEhvbWUgd2l0aCBHYW1lczwvdGV4dD48L2c+PHJlY3QgZmlsbD0iI0VFRUVFRSIgaGVpZ2h0PSIzIiBzdHlsZT0ic3Ryb2tlOiNFRUVFRUU7c3Ryb2tlLXdpZHRoOjE7IiB3aWR0aD0iMTI1NSIgeD0iMCIgeT0iMzAwLjQ4MDUiLz48bGluZSBzdHlsZT0ic3Ryb2tlOiMwMDAwMDA7c3Ryb2tlLXdpZHRoOjE7IiB4MT0iMCIgeDI9IjEyNTUiIHkxPSIzMDAuNDgwNSIgeTI9IjMwMC40ODA1Ii8+PGxpbmUgc3R5bGU9InN0cm9rZTojMDAwMDAwO3N0cm9rZS13aWR0aDoxOyIgeDE9IjAiIHgyPSIxMjU1IiB5MT0iMzAzLjQ4MDUiIHkyPSIzMDMuNDgwNSIvPjxyZWN0IGZpbGw9IiNFRUVFRUUiIGhlaWdodD0iMjEuOTE0MSIgc3R5bGU9InN0cm9rZTojMDAwMDAwO3N0cm9rZS13aWR0aDoyOyIgd2lkdGg9IjEzMSIgeD0iNTYyIiB5PSIyOTAuNTIzNCIvPjx0ZXh0IGZpbGw9IiMwMDAwMDAiIGZvbnQtZmFtaWx5PSJzYW5zLXNlcmlmIiBmb250LXNpemU9IjEzIiBmb250LXdlaWdodD0iYm9sZCIgbGVuZ3RoQWRqdXN0PSJzcGFjaW5nIiB0ZXh0TGVuZ3RoPSIxMTAuNSIgeD0iNTY4IiB5PSIzMDYuODEyNSI+TG9naW4vU2lnbnVwIEZsb3c8L3RleHQ+PGcgY2xhc3M9Im1lc3NhZ2UiIGRhdGEtcGFydGljaXBhbnQtMT0iVXNlciIgZGF0YS1wYXJ0aWNpcGFudC0yPSJVSSI+PHBvbHlnb24gZmlsbD0iIzE4MTgxOCIgcG9pbnRzPSIzMjMsMzM4LjM1MTYsMzMzLDM0Mi4zNTE2LDMyMywzNDYuMzUxNiwzMjcsMzQyLjM1MTYiIHN0eWxlPSJzdHJva2U6IzE4MTgxODtzdHJva2Utd2lkdGg6MTsiLz48bGluZSBzdHlsZT0ic3Ryb2tlOiMxODE4MTg7c3Ryb2tlLXdpZHRoOjE7IiB4MT0iNDciIHgyPSIzMjkiIHkxPSIzNDIuMzUxNiIgeTI9IjM0Mi4zNTE2Ii8+PHRleHQgZmlsbD0iIzAwMDAwMCIgZm9udC1mYW1pbHk9InNhbnMtc2VyaWYiIGZvbnQtc2l6ZT0iMTMiIGZvbnQtd2VpZ2h0PSJib2xkIiBsZW5ndGhBZGp1c3Q9InNwYWNpbmciIHRleHRMZW5ndGg9IjEzIiB4PSI1NCIgeT0iMzM4LjcyNjYiPjUuPC90ZXh0Pjx0ZXh0IGZpbGw9IiMwMDAwMDAiIGZvbnQtZmFtaWx5PSJzYW5zLXNlcmlmIiBmb250LXNpemU9IjEzIiBsZW5ndGhBZGp1c3Q9InNwYWNpbmciIHRleHRMZW5ndGg9IjEzNi41IiB4PSI3MSIgeT0iMzM4LjcyNjYiPjIuIENsaWNrIExvZ2luL1NpZ251cDwvdGV4dD48L2c+PGcgY2xhc3M9Im1lc3NhZ2UiIGRhdGEtcGFydGljaXBhbnQtMT0iVUkiIGRhdGEtcGFydGljaXBhbnQtMj0iQmFja2VuZCI+PHBvbHlnb24gZmlsbD0iIzE4MTgxOCIgcG9pbnRzPSI3NDQuNSwzNjYuMjY1Niw3NTQuNSwzNzAuMjY1Niw3NDQuNSwzNzQuMjY1Niw3NDguNSwzNzAuMjY1NiIgc3R5bGU9InN0cm9rZTojMTgxODE4O3N0cm9rZS13aWR0aDoxOyIvPjxsaW5lIHN0eWxlPSJzdHJva2U6IzE4MTgxODtzdHJva2Utd2lkdGg6MTsiIHgxPSIzNDUiIHgyPSI3NTAuNSIgeTE9IjM3MC4yNjU2IiB5Mj0iMzcwLjI2NTYiLz48dGV4dCBmaWxsPSIjMDAwMDAwIiBmb250LWZhbWlseT0ic2Fucy1zZXJpZiIgZm9udC1zaXplPSIxMyIgZm9udC13ZWlnaHQ9ImJvbGQiIGxlbmd0aEFkanVzdD0ic3BhY2luZyIgdGV4dExlbmd0aD0iMTMiIHg9IjM1MiIgeT0iMzY2LjY0MDYiPjYuPC90ZXh0Pjx0ZXh0IGZpbGw9IiMwMDAwMDAiIGZvbnQtZmFtaWx5PSJzYW5zLXNlcmlmIiBmb250LXNpemU9IjEzIiBsZW5ndGhBZGp1c3Q9InNwYWNpbmciIHRleHRMZW5ndGg9IjEzNi41IiB4PSIzNjkiIHk9IjM2Ni42NDA2Ij4yLjEuIFNlbmQgQ3JlZGVudGlhbHM8L3RleHQ+PC9nPjxnIGNsYXNzPSJtZXNzYWdlIiBkYXRhLXBhcnRpY2lwYW50LTE9IkJhY2tlbmQiIGRhdGEtcGFydGljaXBhbnQtMj0iREIiPjxwb2x5Z29uIGZpbGw9IiMxODE4MTgiIHBvaW50cz0iMTE1OS41LDM5NC4xNzk3LDExNjkuNSwzOTguMTc5NywxMTU5LjUsNDAyLjE3OTcsMTE2My41LDM5OC4xNzk3IiBzdHlsZT0ic3Ryb2tlOiMxODE4MTg7c3Ryb2tlLXdpZHRoOjE7Ii8+PGxpbmUgc3R5bGU9InN0cm9rZTojMTgxODE4O3N0cm9rZS13aWR0aDoxOyIgeDE9Ijc2Ni41IiB4Mj0iMTE2NS41IiB5MT0iMzk4LjE3OTciIHkyPSIzOTguMTc5NyIvPjx0ZXh0IGZpbGw9IiMwMDAwMDAiIGZvbnQtZmFtaWx5PSJzYW5zLXNlcmlmIiBmb250LXNpemU9IjEzIiBmb250LXdlaWdodD0iYm9sZCIgbGVuZ3RoQWRqdXN0PSJzcGFjaW5nIiB0ZXh0TGVuZ3RoPSIxMyIgeD0iNzczLjUiIHk9IjM5NC41NTQ3Ij43LjwvdGV4dD48dGV4dCBmaWxsPSIjMDAwMDAwIiBmb250LWZhbWlseT0ic2Fucy1zZXJpZiIgZm9udC1zaXplPSIxMyIgbGVuZ3RoQWRqdXN0PSJzcGFjaW5nIiB0ZXh0TGVuZ3RoPSIxNzUuNSIgeD0iNzkwLjUiIHk9IjM5NC41NTQ3Ij4yLjEuMS4gVmFsaWRhdGUgLyBTYXZlIFVzZXI8L3RleHQ+PC9nPjxnIGNsYXNzPSJtZXNzYWdlIiBkYXRhLXBhcnRpY2lwYW50LTE9IkRCIiBkYXRhLXBhcnRpY2lwYW50LTI9IkJhY2tlbmQiPjxwb2x5Z29uIGZpbGw9IiMxODE4MTgiIHBvaW50cz0iNzc3LjUsNDIyLjA5MzgsNzY3LjUsNDI2LjA5MzgsNzc3LjUsNDMwLjA5MzgsNzczLjUsNDI2LjA5MzgiIHN0eWxlPSJzdHJva2U6IzE4MTgxODtzdHJva2Utd2lkdGg6MTsiLz48bGluZSBzdHlsZT0ic3Ryb2tlOiMxODE4MTg7c3Ryb2tlLXdpZHRoOjE7c3Ryb2tlLWRhc2hhcnJheToyLjAsMi4wOyIgeDE9Ijc3MS41IiB4Mj0iMTE3NS41IiB5MT0iNDI2LjA5MzgiIHkyPSI0MjYuMDkzOCIvPjx0ZXh0IGZpbGw9IiMwMDAwMDAiIGZvbnQtZmFtaWx5PSJzYW5zLXNlcmlmIiBmb250LXNpemU9IjEzIiBmb250LXdlaWdodD0iYm9sZCIgbGVuZ3RoQWRqdXN0PSJzcGFjaW5nIiB0ZXh0TGVuZ3RoPSIxMyIgeD0iNzgzLjUiIHk9IjQyMi40Njg4Ij44LjwvdGV4dD48dGV4dCBmaWxsPSIjMDAwMDAwIiBmb250LWZhbWlseT0ic2Fucy1zZXJpZiIgZm9udC1zaXplPSIxMyIgbGVuZ3RoQWRqdXN0PSJzcGFjaW5nIiB0ZXh0TGVuZ3RoPSIxODguNSIgeD0iODAwLjUiIHk9IjQyMi40Njg4Ij4yLjEuMi4gUmV0dXJuIFN1Y2Nlc3MvRmFpbHVyZTwvdGV4dD48L2c+PGcgY2xhc3M9Im1lc3NhZ2UiIGRhdGEtcGFydGljaXBhbnQtMT0iQmFja2VuZCIgZGF0YS1wYXJ0aWNpcGFudC0yPSJVSSI+PHBvbHlnb24gZmlsbD0iIzE4MTgxOCIgcG9pbnRzPSIzNTYsNDUwLjAwNzgsMzQ2LDQ1NC4wMDc4LDM1Niw0NTguMDA3OCwzNTIsNDU0LjAwNzgiIHN0eWxlPSJzdHJva2U6IzE4MTgxODtzdHJva2Utd2lkdGg6MTsiLz48bGluZSBzdHlsZT0ic3Ryb2tlOiMxODE4MTg7c3Ryb2tlLXdpZHRoOjE7c3Ryb2tlLWRhc2hhcnJheToyLjAsMi4wOyIgeDE9IjM1MCIgeDI9Ijc2MC41IiB5MT0iNDU0LjAwNzgiIHkyPSI0NTQuMDA3OCIvPjx0ZXh0IGZpbGw9IiMwMDAwMDAiIGZvbnQtZmFtaWx5PSJzYW5zLXNlcmlmIiBmb250LXNpemU9IjEzIiBmb250LXdlaWdodD0iYm9sZCIgbGVuZ3RoQWRqdXN0PSJzcGFjaW5nIiB0ZXh0TGVuZ3RoPSIxMyIgeD0iMzYyIiB5PSI0NTAuMzgyOCI+OS48L3RleHQ+PHRleHQgZmlsbD0iIzAwMDAwMCIgZm9udC1mYW1pbHk9InNhbnMtc2VyaWYiIGZvbnQtc2l6ZT0iMTMiIGxlbmd0aEFkanVzdD0ic3BhY2luZyIgdGV4dExlbmd0aD0iMTEwLjUiIHg9IjM3OSIgeT0iNDUwLjM4MjgiPjIuMi4gQXV0aCBTdWNjZXNzPC90ZXh0PjwvZz48ZyBjbGFzcz0ibWVzc2FnZSIgZGF0YS1wYXJ0aWNpcGFudC0xPSJVSSIgZGF0YS1wYXJ0aWNpcGFudC0yPSJVc2VyIj48cG9seWdvbiBmaWxsPSIjMTgxODE4IiBwb2ludHM9IjU4LDQ3Ny45MjE5LDQ4LDQ4MS45MjE5LDU4LDQ4NS45MjE5LDU0LDQ4MS45MjE5IiBzdHlsZT0ic3Ryb2tlOiMxODE4MTg7c3Ryb2tlLXdpZHRoOjE7Ii8+PGxpbmUgc3R5bGU9InN0cm9rZTojMTgxODE4O3N0cm9rZS13aWR0aDoxOyIgeDE9IjUyIiB4Mj0iMzM5IiB5MT0iNDgxLjkyMTkiIHkyPSI0ODEuOTIxOSIvPjx0ZXh0IGZpbGw9IiMwMDAwMDAiIGZvbnQtZmFtaWx5PSJzYW5zLXNlcmlmIiBmb250LXNpemU9IjEzIiBmb250LXdlaWdodD0iYm9sZCIgbGVuZ3RoQWRqdXN0PSJzcGFjaW5nIiB0ZXh0TGVuZ3RoPSIxOS41IiB4PSI2NCIgeT0iNDc4LjI5NjkiPjEwLjwvdGV4dD48dGV4dCBmaWxsPSIjMDAwMDAwIiBmb250LWZhbWlseT0ic2Fucy1zZXJpZiIgZm9udC1zaXplPSIxMyIgbGVuZ3RoQWRqdXN0PSJzcGFjaW5nIiB0ZXh0TGVuZ3RoPSIxNjIuNSIgeD0iODcuNSIgeT0iNDc4LjI5NjkiPjIuMy4gU2hvdyBMb2dnZWQtaW4gU3RhdGU8L3RleHQ+PC9nPjxyZWN0IGZpbGw9IiNFRUVFRUUiIGhlaWdodD0iMyIgc3R5bGU9InN0cm9rZTojRUVFRUVFO3N0cm9rZS13aWR0aDoxOyIgd2lkdGg9IjEyNTUiIHg9IjAiIHk9IjUwOS44Nzg5Ii8+PGxpbmUgc3R5bGU9InN0cm9rZTojMDAwMDAwO3N0cm9rZS13aWR0aDoxOyIgeDE9IjAiIHgyPSIxMjU1IiB5MT0iNTA5Ljg3ODkiIHkyPSI1MDkuODc4OSIvPjxsaW5lIHN0eWxlPSJzdHJva2U6IzAwMDAwMDtzdHJva2Utd2lkdGg6MTsiIHgxPSIwIiB4Mj0iMTI1NSIgeTE9IjUxMi44Nzg5IiB5Mj0iNTEyLjg3ODkiLz48cmVjdCBmaWxsPSIjRUVFRUVFIiBoZWlnaHQ9IjIxLjkxNDEiIHN0eWxlPSJzdHJva2U6IzAwMDAwMDtzdHJva2Utd2lkdGg6MjsiIHdpZHRoPSIxMDUiIHg9IjU3NSIgeT0iNDk5LjkyMTkiLz48dGV4dCBmaWxsPSIjMDAwMDAwIiBmb250LWZhbWlseT0ic2Fucy1zZXJpZiIgZm9udC1zaXplPSIxMyIgZm9udC13ZWlnaHQ9ImJvbGQiIGxlbmd0aEFkanVzdD0ic3BhY2luZyIgdGV4dExlbmd0aD0iODQuNSIgeD0iNTgxIiB5PSI1MTYuMjEwOSI+QWRkIEdhbWUgRmxvdzwvdGV4dD48ZyBjbGFzcz0ibWVzc2FnZSIgZGF0YS1wYXJ0aWNpcGFudC0xPSJVc2VyIiBkYXRhLXBhcnRpY2lwYW50LTI9IlVJIj48cG9seWdvbiBmaWxsPSIjMTgxODE4IiBwb2ludHM9IjMyMyw1NDcuNzUsMzMzLDU1MS43NSwzMjMsNTU1Ljc1LDMyNyw1NTEuNzUiIHN0eWxlPSJzdHJva2U6IzE4MTgxODtzdHJva2Utd2lkdGg6MTsiLz48bGluZSBzdHlsZT0ic3Ryb2tlOiMxODE4MTg7c3Ryb2tlLXdpZHRoOjE7IiB4MT0iNDciIHgyPSIzMjkiIHkxPSI1NTEuNzUiIHkyPSI1NTEuNzUiLz48dGV4dCBmaWxsPSIjMDAwMDAwIiBmb250LWZhbWlseT0ic2Fucy1zZXJpZiIgZm9udC1zaXplPSIxMyIgZm9udC13ZWlnaHQ9ImJvbGQiIGxlbmd0aEFkanVzdD0ic3BhY2luZyIgdGV4dExlbmd0aD0iMTkuNSIgeD0iNTQiIHk9IjU0OC4xMjUiPjExLjwvdGV4dD48dGV4dCBmaWxsPSIjMDAwMDAwIiBmb250LWZhbWlseT0ic2Fucy1zZXJpZiIgZm9udC1zaXplPSIxMyIgbGVuZ3RoQWRqdXN0PSJzcGFjaW5nIiB0ZXh0TGVuZ3RoPSIxOTUiIHg9Ijc3LjUiIHk9IjU0OC4xMjUiPjMuIFN1Z2dlc3QgYSBHYW1lIChlbnRlciBuYW1lKTwvdGV4dD48L2c+PGcgY2xhc3M9Im1lc3NhZ2UiIGRhdGEtcGFydGljaXBhbnQtMT0iVUkiIGRhdGEtcGFydGljaXBhbnQtMj0iQmFja2VuZCI+PHBvbHlnb24gZmlsbD0iIzE4MTgxOCIgcG9pbnRzPSI3NDQuNSw1NzUuNjY0MSw3NTQuNSw1NzkuNjY0MSw3NDQuNSw1ODMuNjY0MSw3NDguNSw1NzkuNjY0MSIgc3R5bGU9InN0cm9rZTojMTgxODE4O3N0cm9rZS13aWR0aDoxOyIvPjxsaW5lIHN0eWxlPSJzdHJva2U6IzE4MTgxODtzdHJva2Utd2lkdGg6MTsiIHgxPSIzNDUiIHgyPSI3NTAuNSIgeTE9IjU3OS42NjQxIiB5Mj0iNTc5LjY2NDEiLz48dGV4dCBmaWxsPSIjMDAwMDAwIiBmb250LWZhbWlseT0ic2Fucy1zZXJpZiIgZm9udC1zaXplPSIxMyIgZm9udC13ZWlnaHQ9ImJvbGQiIGxlbmd0aEFkanVzdD0ic3BhY2luZyIgdGV4dExlbmd0aD0iMTkuNSIgeD0iMzUyIiB5PSI1NzYuMDM5MSI+MTIuPC90ZXh0Pjx0ZXh0IGZpbGw9IiMwMDAwMDAiIGZvbnQtZmFtaWx5PSJzYW5zLXNlcmlmIiBmb250LXNpemU9IjEzIiBsZW5ndGhBZGp1c3Q9InNwYWNpbmciIHRleHRMZW5ndGg9IjIwMS41IiB4PSIzNzUuNSIgeT0iNTc2LjAzOTEiPjMuMS4gQ2hlY2sgaWYgR2FtZSBFeGlzdHMgaW4gREI8L3RleHQ+PC9nPjxnIGNsYXNzPSJtZXNzYWdlIiBkYXRhLXBhcnRpY2lwYW50LTE9IkJhY2tlbmQiIGRhdGEtcGFydGljaXBhbnQtMj0iREIiPjxwb2x5Z29uIGZpbGw9IiMxODE4MTgiIHBvaW50cz0iMTE2NC41LDYwMy41NzgxLDExNzQuNSw2MDcuNTc4MSwxMTY0LjUsNjExLjU3ODEsMTE2OC41LDYwNy41NzgxIiBzdHlsZT0ic3Ryb2tlOiMxODE4MTg7c3Ryb2tlLXdpZHRoOjE7Ii8+PGxpbmUgc3R5bGU9InN0cm9rZTojMTgxODE4O3N0cm9rZS13aWR0aDoxOyIgeDE9Ijc2Ni41IiB4Mj0iMTE3MC41IiB5MT0iNjA3LjU3ODEiIHkyPSI2MDcuNTc4MSIvPjx0ZXh0IGZpbGw9IiMwMDAwMDAiIGZvbnQtZmFtaWx5PSJzYW5zLXNlcmlmIiBmb250LXNpemU9IjEzIiBmb250LXdlaWdodD0iYm9sZCIgbGVuZ3RoQWRqdXN0PSJzcGFjaW5nIiB0ZXh0TGVuZ3RoPSIxOS41IiB4PSI3NzMuNSIgeT0iNjAzLjk1MzEiPjEzLjwvdGV4dD48dGV4dCBmaWxsPSIjMDAwMDAwIiBmb250LWZhbWlseT0ic2Fucy1zZXJpZiIgZm9udC1zaXplPSIxMyIgbGVuZ3RoQWRqdXN0PSJzcGFjaW5nIiB0ZXh0TGVuZ3RoPSIyMjEiIHg9Ijc5NyIgeT0iNjAzLjk1MzEiPjMuMS4xLiBRdWVyeSBmb3IgZ2FtZSBieSBuYW1lL3NsdWc8L3RleHQ+PC9nPjxwYXRoIGQ9Ik0xMCw2MjIuNTc4MSBMNzQuNSw2MjIuNTc4MSBMNzQuNSw2MjguNDkyMiBMNjQuNSw2MzguNDkyMiBMMTAsNjM4LjQ5MjIgTDEwLDYyMi41NzgxIiBmaWxsPSIjRUVFRUVFIiBzdHlsZT0ic3Ryb2tlOiMwMDAwMDA7c3Ryb2tlLXdpZHRoOjEuNTsiLz48cmVjdCBmaWxsPSJub25lIiBoZWlnaHQ9IjQzNi4yNTc4IiBzdHlsZT0ic3Ryb2tlOiMwMDAwMDA7c3Ryb2tlLXdpZHRoOjEuNTsiIHdpZHRoPSIxMjM1IiB4PSIxMCIgeT0iNjIyLjU3ODEiLz48dGV4dCBmaWxsPSIjNTU1NTU1IiBmb250LWZhbWlseT0ic2Fucy1zZXJpZiIgZm9udC1zaXplPSIxMyIgZm9udC13ZWlnaHQ9ImJvbGQiIGxlbmd0aEFkanVzdD0ic3BhY2luZyIgdGV4dExlbmd0aD0iMTkuNSIgeD0iMjUiIHk9IjYzNS44NjcyIj5hbHQ8L3RleHQ+PHRleHQgZmlsbD0iIzAwMDAwMCIgZm9udC1mYW1pbHk9InNhbnMtc2VyaWYiIGZvbnQtc2l6ZT0iMTEiIGZvbnQtd2VpZ2h0PSJib2xkIiBsZW5ndGhBZGp1c3Q9InNwYWNpbmciIHRleHRMZW5ndGg9IjExNS41IiB4PSI4OS41IiB5PSI2MzQuOTc2NiI+W0dhbWUgQWxyZWFkeSBFeGlzdHNdPC90ZXh0PjxnIGNsYXNzPSJtZXNzYWdlIiBkYXRhLXBhcnRpY2lwYW50LTE9IkRCIiBkYXRhLXBhcnRpY2lwYW50LTI9IkJhY2tlbmQiPjxwb2x5Z29uIGZpbGw9IiMxODE4MTgiIHBvaW50cz0iNzc3LjUsNjU0LjQwNjMsNzY3LjUsNjU4LjQwNjMsNzc3LjUsNjYyLjQwNjMsNzczLjUsNjU4LjQwNjMiIHN0eWxlPSJzdHJva2U6IzE4MTgxODtzdHJva2Utd2lkdGg6MTsiLz48bGluZSBzdHlsZT0ic3Ryb2tlOiMxODE4MTg7c3Ryb2tlLXdpZHRoOjE7c3Ryb2tlLWRhc2hhcnJheToyLjAsMi4wOyIgeDE9Ijc3MS41IiB4Mj0iMTE3NS41IiB5MT0iNjU4LjQwNjMiIHkyPSI2NTguNDA2MyIvPjx0ZXh0IGZpbGw9IiMwMDAwMDAiIGZvbnQtZmFtaWx5PSJzYW5zLXNlcmlmIiBmb250LXNpemU9IjEzIiBmb250LXdlaWdodD0iYm9sZCIgbGVuZ3RoQWRqdXN0PSJzcGFjaW5nIiB0ZXh0TGVuZ3RoPSIxOS41IiB4PSI3ODMuNSIgeT0iNjU0Ljc4MTMiPjE0LjwvdGV4dD48dGV4dCBmaWxsPSIjMDAwMDAwIiBmb250LWZhbWlseT0ic2Fucy1zZXJpZiIgZm9udC1zaXplPSIxMyIgbGVuZ3RoQWRqdXN0PSJzcGFjaW5nIiB0ZXh0TGVuZ3RoPSIxODguNSIgeD0iODA3IiB5PSI2NTQuNzgxMyI+My4xLjEuMS4gUmV0dXJuIEV4aXN0aW5nIEdhbWU8L3RleHQ+PC9nPjxnIGNsYXNzPSJtZXNzYWdlIiBkYXRhLXBhcnRpY2lwYW50LTE9IkJhY2tlbmQiIGRhdGEtcGFydGljaXBhbnQtMj0iREIiPjxwb2x5Z29uIGZpbGw9IiMxODE4MTgiIHBvaW50cz0iMTE2NC41LDY4Mi4zMjAzLDExNzQuNSw2ODYuMzIwMywxMTY0LjUsNjkwLjMyMDMsMTE2OC41LDY4Ni4zMjAzIiBzdHlsZT0ic3Ryb2tlOiMxODE4MTg7c3Ryb2tlLXdpZHRoOjE7Ii8+PGxpbmUgc3R5bGU9InN0cm9rZTojMTgxODE4O3N0cm9rZS13aWR0aDoxOyIgeDE9Ijc2Ni41IiB4Mj0iMTE3MC41IiB5MT0iNjg2LjMyMDMiIHkyPSI2ODYuMzIwMyIvPjx0ZXh0IGZpbGw9IiMwMDAwMDAiIGZvbnQtZmFtaWx5PSJzYW5zLXNlcmlmIiBmb250LXNpemU9IjEzIiBmb250LXdlaWdodD0iYm9sZCIgbGVuZ3RoQWRqdXN0PSJzcGFjaW5nIiB0ZXh0TGVuZ3RoPSIxOS41IiB4PSI3NzMuNSIgeT0iNjgyLjY5NTMiPjE1LjwvdGV4dD48dGV4dCBmaWxsPSIjMDAwMDAwIiBmb250LWZhbWlseT0ic2Fucy1zZXJpZiIgZm9udC1zaXplPSIxMyIgbGVuZ3RoQWRqdXN0PSJzcGFjaW5nIiB0ZXh0TGVuZ3RoPSIyOTIuNSIgeD0iNzk3IiB5PSI2ODIuNjk1MyI+My4xLjEuMi4gVXBkYXRlICdhZGRlZEJ5JyBmaWVsZCB3aXRoIHVzZXJuYW1lPC90ZXh0PjwvZz48ZyBjbGFzcz0ibWVzc2FnZSIgZGF0YS1wYXJ0aWNpcGFudC0xPSJEQiIgZGF0YS1wYXJ0aWNpcGFudC0yPSJCYWNrZW5kIj48cG9seWdvbiBmaWxsPSIjMTgxODE4IiBwb2ludHM9Ijc3Ny41LDcxMC4yMzQ0LDc2Ny41LDcxNC4yMzQ0LDc3Ny41LDcxOC4yMzQ0LDc3My41LDcxNC4yMzQ0IiBzdHlsZT0ic3Ryb2tlOiMxODE4MTg7c3Ryb2tlLXdpZHRoOjE7Ii8+PGxpbmUgc3R5bGU9InN0cm9rZTojMTgxODE4O3N0cm9rZS13aWR0aDoxO3N0cm9rZS1kYXNoYXJyYXk6Mi4wLDIuMDsiIHgxPSI3NzEuNSIgeDI9IjExNzUuNSIgeTE9IjcxNC4yMzQ0IiB5Mj0iNzE0LjIzNDQiLz48dGV4dCBmaWxsPSIjMDAwMDAwIiBmb250LWZhbWlseT0ic2Fucy1zZXJpZiIgZm9udC1zaXplPSIxMyIgZm9udC13ZWlnaHQ9ImJvbGQiIGxlbmd0aEFkanVzdD0ic3BhY2luZyIgdGV4dExlbmd0aD0iMTkuNSIgeD0iNzgzLjUiIHk9IjcxMC42MDk0Ij4xNi48L3RleHQ+PHRleHQgZmlsbD0iIzAwMDAwMCIgZm9udC1mYW1pbHk9InNhbnMtc2VyaWYiIGZvbnQtc2l6ZT0iMTMiIGxlbmd0aEFkanVzdD0ic3BhY2luZyIgdGV4dExlbmd0aD0iMTQ5LjUiIHg9IjgwNyIgeT0iNzEwLjYwOTQiPjMuMS4xLjMuIENvbmZpcm0gVXBkYXRlPC90ZXh0PjwvZz48bGluZSBzdHlsZT0ic3Ryb2tlOiMwMDAwMDA7c3Ryb2tlLXdpZHRoOjE7c3Ryb2tlLWRhc2hhcnJheToyLjAsMi4wOyIgeDE9IjEwIiB4Mj0iMTI0NSIgeTE9IjcyMy4yMzQ0IiB5Mj0iNzIzLjIzNDQiLz48dGV4dCBmaWxsPSIjMDAwMDAwIiBmb250LWZhbWlseT0ic2Fucy1zZXJpZiIgZm9udC1zaXplPSIxMSIgZm9udC13ZWlnaHQ9ImJvbGQiIGxlbmd0aEFkanVzdD0ic3BhY2luZyIgdGV4dExlbmd0aD0iMTE1LjUiIHg9IjE1IiB5PSI3MzMuNjMyOCI+W0dhbWUgRG9lcyBOb3QgRXhpc3RdPC90ZXh0PjxnIGNsYXNzPSJtZXNzYWdlIiBkYXRhLXBhcnRpY2lwYW50LTE9IkJhY2tlbmQiIGRhdGEtcGFydGljaXBhbnQtMj0iUkFXRyI+PHBvbHlnb24gZmlsbD0iIzE4MTgxOCIgcG9pbnRzPSIxMDM2LDc1MS45MjE5LDEwNDYsNzU1LjkyMTksMTAzNiw3NTkuOTIxOSwxMDQwLDc1NS45MjE5IiBzdHlsZT0ic3Ryb2tlOiMxODE4MTg7c3Ryb2tlLXdpZHRoOjE7Ii8+PGxpbmUgc3R5bGU9InN0cm9rZTojMTgxODE4O3N0cm9rZS13aWR0aDoxOyIgeDE9Ijc2Ni41IiB4Mj0iMTA0MiIgeTE9Ijc1NS45MjE5IiB5Mj0iNzU1LjkyMTkiLz48dGV4dCBmaWxsPSIjMDAwMDAwIiBmb250LWZhbWlseT0ic2Fucy1zZXJpZiIgZm9udC1zaXplPSIxMyIgZm9udC13ZWlnaHQ9ImJvbGQiIGxlbmd0aEFkanVzdD0ic3BhY2luZyIgdGV4dExlbmd0aD0iMTkuNSIgeD0iNzczLjUiIHk9Ijc1Mi4yOTY5Ij4xNy48L3RleHQ+PHRleHQgZmlsbD0iIzAwMDAwMCIgZm9udC1mYW1pbHk9InNhbnMtc2VyaWYiIGZvbnQtc2l6ZT0iMTMiIGxlbmd0aEFkanVzdD0ic3BhY2luZyIgdGV4dExlbmd0aD0iMjM0IiB4PSI3OTciIHk9Ijc1Mi4yOTY5Ij4zLjEuMi4gUmVxdWVzdCBHYW1lIERldGFpbHMgZnJvbSBBUEk8L3RleHQ+PC9nPjxwYXRoIGQ9Ik0yMCw3NzAuOTIxOSBMODQuNSw3NzAuOTIxOSBMODQuNSw3NzYuODM1OSBMNzQuNSw3ODYuODM1OSBMMjAsNzg2LjgzNTkgTDIwLDc3MC45MjE5IiBmaWxsPSIjRUVFRUVFIiBzdHlsZT0ic3Ryb2tlOiMwMDAwMDA7c3Ryb2tlLXdpZHRoOjEuNTsiLz48cmVjdCBmaWxsPSJub25lIiBoZWlnaHQ9IjI4MC45MTQxIiBzdHlsZT0ic3Ryb2tlOiMwMDAwMDA7c3Ryb2tlLXdpZHRoOjEuNTsiIHdpZHRoPSIxMjE1IiB4PSIyMCIgeT0iNzcwLjkyMTkiLz48dGV4dCBmaWxsPSIjNTU1NTU1IiBmb250LWZhbWlseT0ic2Fucy1zZXJpZiIgZm9udC1zaXplPSIxMyIgZm9udC13ZWlnaHQ9ImJvbGQiIGxlbmd0aEFkanVzdD0ic3BhY2luZyIgdGV4dExlbmd0aD0iMTkuNSIgeD0iMzUiIHk9Ijc4NC4yMTA5Ij5hbHQ8L3RleHQ+PHRleHQgZmlsbD0iIzAwMDAwMCIgZm9udC1mYW1pbHk9InNhbnMtc2VyaWYiIGZvbnQtc2l6ZT0iMTEiIGZvbnQtd2VpZ2h0PSJib2xkIiBsZW5ndGhBZGp1c3Q9InNwYWNpbmciIHRleHRMZW5ndGg9IjE1OS41IiB4PSI5OS41IiB5PSI3ODMuMzIwMyI+W1JBV0cgQVBJIFJlc3BvbmRzIHdpdGggRGF0YV08L3RleHQ+PGcgY2xhc3M9Im1lc3NhZ2UiIGRhdGEtcGFydGljaXBhbnQtMT0iUkFXRyIgZGF0YS1wYXJ0aWNpcGFudC0yPSJCYWNrZW5kIj48cG9seWdvbiBmaWxsPSIjMTgxODE4IiBwb2ludHM9Ijc3Ny41LDgwMi43NSw3NjcuNSw4MDYuNzUsNzc3LjUsODEwLjc1LDc3My41LDgwNi43NSIgc3R5bGU9InN0cm9rZTojMTgxODE4O3N0cm9rZS13aWR0aDoxOyIvPjxsaW5lIHN0eWxlPSJzdHJva2U6IzE4MTgxODtzdHJva2Utd2lkdGg6MTtzdHJva2UtZGFzaGFycmF5OjIuMCwyLjA7IiB4MT0iNzcxLjUiIHgyPSIxMDQ3IiB5MT0iODA2Ljc1IiB5Mj0iODA2Ljc1Ii8+PHRleHQgZmlsbD0iIzAwMDAwMCIgZm9udC1mYW1pbHk9InNhbnMtc2VyaWYiIGZvbnQtc2l6ZT0iMTMiIGZvbnQtd2VpZ2h0PSJib2xkIiBsZW5ndGhBZGp1c3Q9InNwYWNpbmciIHRleHRMZW5ndGg9IjE5LjUiIHg9Ijc4My41IiB5PSI4MDMuMTI1Ij4xOC48L3RleHQ+PHRleHQgZmlsbD0iIzAwMDAwMCIgZm9udC1mYW1pbHk9InNhbnMtc2VyaWYiIGZvbnQtc2l6ZT0iMTMiIGxlbmd0aEFkanVzdD0ic3BhY2luZyIgdGV4dExlbmd0aD0iMTYyLjUiIHg9IjgwNyIgeT0iODAzLjEyNSI+My4xLjIuMS4gUmV0dXJuIEdhbWUgRGF0YTwvdGV4dD48L2c+PGcgY2xhc3M9Im1lc3NhZ2UiIGRhdGEtcGFydGljaXBhbnQtMT0iQmFja2VuZCIgZGF0YS1wYXJ0aWNpcGFudC0yPSJEQiI+PHBvbHlnb24gZmlsbD0iIzE4MTgxOCIgcG9pbnRzPSIxMTY0LjUsODMwLjY2NDEsMTE3NC41LDgzNC42NjQxLDExNjQuNSw4MzguNjY0MSwxMTY4LjUsODM0LjY2NDEiIHN0eWxlPSJzdHJva2U6IzE4MTgxODtzdHJva2Utd2lkdGg6MTsiLz48bGluZSBzdHlsZT0ic3Ryb2tlOiMxODE4MTg7c3Ryb2tlLXdpZHRoOjE7IiB4MT0iNzY2LjUiIHgyPSIxMTcwLjUiIHkxPSI4MzQuNjY0MSIgeTI9IjgzNC42NjQxIi8+PHRleHQgZmlsbD0iIzAwMDAwMCIgZm9udC1mYW1pbHk9InNhbnMtc2VyaWYiIGZvbnQtc2l6ZT0iMTMiIGZvbnQtd2VpZ2h0PSJib2xkIiBsZW5ndGhBZGp1c3Q9InNwYWNpbmciIHRleHRMZW5ndGg9IjE5LjUiIHg9Ijc3My41IiB5PSI4MzEuMDM5MSI+MTkuPC90ZXh0Pjx0ZXh0IGZpbGw9IiMwMDAwMDAiIGZvbnQtZmFtaWx5PSJzYW5zLXNlcmlmIiBmb250LXNpemU9IjEzIiBsZW5ndGhBZGp1c3Q9InNwYWNpbmciIHRleHRMZW5ndGg9IjMwNS41IiB4PSI3OTciIHk9IjgzMS4wMzkxIj4zLjEuMi4yLiBTYXZlIERhdGEgdG8gJ1BlbmRpbmdHYW1lcycgQ29sbGVjdGlvbjwvdGV4dD48L2c+PGcgY2xhc3M9Im1lc3NhZ2UiIGRhdGEtcGFydGljaXBhbnQtMT0iREIiIGRhdGEtcGFydGljaXBhbnQtMj0iQmFja2VuZCI+PHBvbHlnb24gZmlsbD0iIzE4MTgxOCIgcG9pbnRzPSI3NzcuNSw4NTguNTc4MSw3NjcuNSw4NjIuNTc4MSw3NzcuNSw4NjYuNTc4MSw3NzMuNSw4NjIuNTc4MSIgc3R5bGU9InN0cm9rZTojMTgxODE4O3N0cm9rZS13aWR0aDoxOyIvPjxsaW5lIHN0eWxlPSJzdHJva2U6IzE4MTgxODtzdHJva2Utd2lkdGg6MTtzdHJva2UtZGFzaGFycmF5OjIuMCwyLjA7IiB4MT0iNzcxLjUiIHgyPSIxMTc1LjUiIHkxPSI4NjIuNTc4MSIgeTI9Ijg2Mi41NzgxIi8+PHRleHQgZmlsbD0iIzAwMDAwMCIgZm9udC1mYW1pbHk9InNhbnMtc2VyaWYiIGZvbnQtc2l6ZT0iMTMiIGZvbnQtd2VpZ2h0PSJib2xkIiBsZW5ndGhBZGp1c3Q9InNwYWNpbmciIHRleHRMZW5ndGg9IjE5LjUiIHg9Ijc4My41IiB5PSI4NTguOTUzMSI+MjAuPC90ZXh0Pjx0ZXh0IGZpbGw9IiMwMDAwMDAiIGZvbnQtZmFtaWx5PSJzYW5zLXNlcmlmIiBmb250LXNpemU9IjEzIiBsZW5ndGhBZGp1c3Q9InNwYWNpbmciIHRleHRMZW5ndGg9IjE0OS41IiB4PSI4MDciIHk9Ijg1OC45NTMxIj4zLjEuMi4zLiBDb25maXJtIEluc2VydDwvdGV4dD48L2c+PGxpbmUgc3R5bGU9InN0cm9rZTojMDAwMDAwO3N0cm9rZS13aWR0aDoxO3N0cm9rZS1kYXNoYXJyYXk6Mi4wLDIuMDsiIHgxPSIyMCIgeDI9IjEyMzUiIHkxPSI4NzEuNTc4MSIgeTI9Ijg3MS41NzgxIi8+PHRleHQgZmlsbD0iIzAwMDAwMCIgZm9udC1mYW1pbHk9InNhbnMtc2VyaWYiIGZvbnQtc2l6ZT0iMTEiIGZvbnQtd2VpZ2h0PSJib2xkIiBsZW5ndGhBZGp1c3Q9InNwYWNpbmciIHRleHRMZW5ndGg9IjE4MS41IiB4PSIyNSIgeT0iODgxLjk3NjYiPltSQVdHIEFQSSBGYWlscyBvciBObyBEYXRhIEZvdW5kXTwvdGV4dD48ZyBjbGFzcz0ibWVzc2FnZSIgZGF0YS1wYXJ0aWNpcGFudC0xPSJCYWNrZW5kIiBkYXRhLXBhcnRpY2lwYW50LTI9IlVJIj48cG9seWdvbiBmaWxsPSIjMTgxODE4IiBwb2ludHM9IjM1Niw5MDAuMjY1NiwzNDYsOTA0LjI2NTYsMzU2LDkwOC4yNjU2LDM1Miw5MDQuMjY1NiIgc3R5bGU9InN0cm9rZTojMTgxODE4O3N0cm9rZS13aWR0aDoxOyIvPjxsaW5lIHN0eWxlPSJzdHJva2U6IzE4MTgxODtzdHJva2Utd2lkdGg6MTtzdHJva2UtZGFzaGFycmF5OjIuMCwyLjA7IiB4MT0iMzUwIiB4Mj0iNzU1LjUiIHkxPSI5MDQuMjY1NiIgeTI9IjkwNC4yNjU2Ii8+PHRleHQgZmlsbD0iIzAwMDAwMCIgZm9udC1mYW1pbHk9InNhbnMtc2VyaWYiIGZvbnQtc2l6ZT0iMTMiIGZvbnQtd2VpZ2h0PSJib2xkIiBsZW5ndGhBZGp1c3Q9InNwYWNpbmciIHRleHRMZW5ndGg9IjE5LjUiIHg9IjM2MiIgeT0iOTAwLjY0MDYiPjIxLjwvdGV4dD48dGV4dCBmaWxsPSIjMDAwMDAwIiBmb250LWZhbWlseT0ic2Fucy1zZXJpZiIgZm9udC1zaXplPSIxMyIgbGVuZ3RoQWRqdXN0PSJzcGFjaW5nIiB0ZXh0TGVuZ3RoPSIxODguNSIgeD0iMzg1LjUiIHk9IjkwMC42NDA2Ij4zLjEuMi40LiBOb3RpZnkgVUkgb2YgZmFpbHVyZTwvdGV4dD48L2c+PGcgY2xhc3M9Im1lc3NhZ2UiIGRhdGEtcGFydGljaXBhbnQtMT0iVUkiIGRhdGEtcGFydGljaXBhbnQtMj0iVXNlciI+PHBvbHlnb24gZmlsbD0iIzE4MTgxOCIgcG9pbnRzPSI1OCw5MjguMTc5Nyw0OCw5MzIuMTc5Nyw1OCw5MzYuMTc5Nyw1NCw5MzIuMTc5NyIgc3R5bGU9InN0cm9rZTojMTgxODE4O3N0cm9rZS13aWR0aDoxOyIvPjxsaW5lIHN0eWxlPSJzdHJva2U6IzE4MTgxODtzdHJva2Utd2lkdGg6MTsiIHgxPSI1MiIgeDI9IjMzNCIgeTE9IjkzMi4xNzk3IiB5Mj0iOTMyLjE3OTciLz48dGV4dCBmaWxsPSIjMDAwMDAwIiBmb250LWZhbWlseT0ic2Fucy1zZXJpZiIgZm9udC1zaXplPSIxMyIgZm9udC13ZWlnaHQ9ImJvbGQiIGxlbmd0aEFkanVzdD0ic3BhY2luZyIgdGV4dExlbmd0aD0iMTkuNSIgeD0iNjQiIHk9IjkyOC41NTQ3Ij4yMi48L3RleHQ+PHRleHQgZmlsbD0iIzAwMDAwMCIgZm9udC1mYW1pbHk9InNhbnMtc2VyaWYiIGZvbnQtc2l6ZT0iMTMiIGxlbmd0aEFkanVzdD0ic3BhY2luZyIgdGV4dExlbmd0aD0iMjQwLjUiIHg9Ijg3LjUiIHk9IjkyOC41NTQ3Ij4zLjEuMi41LiBQcm9tcHQgZm9yIE1hbnVhbCBTdWJtaXNzaW9uPC90ZXh0PjwvZz48ZyBjbGFzcz0ibWVzc2FnZSIgZGF0YS1wYXJ0aWNpcGFudC0xPSJVc2VyIiBkYXRhLXBhcnRpY2lwYW50LTI9IlVJIj48cG9seWdvbiBmaWxsPSIjMTgxODE4IiBwb2ludHM9IjMyMyw5NTYuMDkzOCwzMzMsOTYwLjA5MzgsMzIzLDk2NC4wOTM4LDMyNyw5NjAuMDkzOCIgc3R5bGU9InN0cm9rZTojMTgxODE4O3N0cm9rZS13aWR0aDoxOyIvPjxsaW5lIHN0eWxlPSJzdHJva2U6IzE4MTgxODtzdHJva2Utd2lkdGg6MTsiIHgxPSI0NyIgeDI9IjMyOSIgeTE9Ijk2MC4wOTM4IiB5Mj0iOTYwLjA5MzgiLz48dGV4dCBmaWxsPSIjMDAwMDAwIiBmb250LWZhbWlseT0ic2Fucy1zZXJpZiIgZm9udC1zaXplPSIxMyIgZm9udC13ZWlnaHQ9ImJvbGQiIGxlbmd0aEFkanVzdD0ic3BhY2luZyIgdGV4dExlbmd0aD0iMTkuNSIgeD0iNTQiIHk9Ijk1Ni40Njg4Ij4yMy48L3RleHQ+PHRleHQgZmlsbD0iIzAwMDAwMCIgZm9udC1mYW1pbHk9InNhbnMtc2VyaWYiIGZvbnQtc2l6ZT0iMTMiIGxlbmd0aEFkanVzdD0ic3BhY2luZyIgdGV4dExlbmd0aD0iMjM0IiB4PSI3Ny41IiB5PSI5NTYuNDY4OCI+My4xLjIuNi4gRW50ZXIgR2FtZSBEZXRhaWxzIE1hbnVhbGx5PC90ZXh0PjwvZz48ZyBjbGFzcz0ibWVzc2FnZSIgZGF0YS1wYXJ0aWNpcGFudC0xPSJVSSIgZGF0YS1wYXJ0aWNpcGFudC0yPSJCYWNrZW5kIj48cG9seWdvbiBmaWxsPSIjMTgxODE4IiBwb2ludHM9Ijc0NC41LDk4NC4wMDc4LDc1NC41LDk4OC4wMDc4LDc0NC41LDk5Mi4wMDc4LDc0OC41LDk4OC4wMDc4IiBzdHlsZT0ic3Ryb2tlOiMxODE4MTg7c3Ryb2tlLXdpZHRoOjE7Ii8+PGxpbmUgc3R5bGU9InN0cm9rZTojMTgxODE4O3N0cm9rZS13aWR0aDoxOyIgeDE9IjM0NSIgeDI9Ijc1MC41IiB5MT0iOTg4LjAwNzgiIHkyPSI5ODguMDA3OCIvPjx0ZXh0IGZpbGw9IiMwMDAwMDAiIGZvbnQtZmFtaWx5PSJzYW5zLXNlcmlmIiBmb250LXNpemU9IjEzIiBmb250LXdlaWdodD0iYm9sZCIgbGVuZ3RoQWRqdXN0PSJzcGFjaW5nIiB0ZXh0TGVuZ3RoPSIxOS41IiB4PSIzNTIiIHk9Ijk4NC4zODI4Ij4yNC48L3RleHQ+PHRleHQgZmlsbD0iIzAwMDAwMCIgZm9udC1mYW1pbHk9InNhbnMtc2VyaWYiIGZvbnQtc2l6ZT0iMTMiIGxlbmd0aEFkanVzdD0ic3BhY2luZyIgdGV4dExlbmd0aD0iMTk1IiB4PSIzNzUuNSIgeT0iOTg0LjM4MjgiPjMuMS4yLjcuIFNlbmQgTWFudWFsIEdhbWUgRGF0YTwvdGV4dD48L2c+PGcgY2xhc3M9Im1lc3NhZ2UiIGRhdGEtcGFydGljaXBhbnQtMT0iQmFja2VuZCIgZGF0YS1wYXJ0aWNpcGFudC0yPSJEQiI+PHBvbHlnb24gZmlsbD0iIzE4MTgxOCIgcG9pbnRzPSIxMTY0LjUsMTAxMS45MjE5LDExNzQuNSwxMDE1LjkyMTksMTE2NC41LDEwMTkuOTIxOSwxMTY4LjUsMTAxNS45MjE5IiBzdHlsZT0ic3Ryb2tlOiMxODE4MTg7c3Ryb2tlLXdpZHRoOjE7Ii8+PGxpbmUgc3R5bGU9InN0cm9rZTojMTgxODE4O3N0cm9rZS13aWR0aDoxOyIgeDE9Ijc2Ni41IiB4Mj0iMTE3MC41IiB5MT0iMTAxNS45MjE5IiB5Mj0iMTAxNS45MjE5Ii8+PHRleHQgZmlsbD0iIzAwMDAwMCIgZm9udC1mYW1pbHk9InNhbnMtc2VyaWYiIGZvbnQtc2l6ZT0iMTMiIGZvbnQtd2VpZ2h0PSJib2xkIiBsZW5ndGhBZGp1c3Q9InNwYWNpbmciIHRleHRMZW5ndGg9IjE5LjUiIHg9Ijc3My41IiB5PSIxMDEyLjI5NjkiPjI1LjwvdGV4dD48dGV4dCBmaWxsPSIjMDAwMDAwIiBmb250LWZhbWlseT0ic2Fucy1zZXJpZiIgZm9udC1zaXplPSIxMyIgbGVuZ3RoQWRqdXN0PSJzcGFjaW5nIiB0ZXh0TGVuZ3RoPSIzMDUuNSIgeD0iNzk3IiB5PSIxMDEyLjI5NjkiPjMuMS4yLjguIEluc2VydCBNYW51YWwgRGF0YSBpbnRvICdQZW5kaW5nR2FtZXMnPC90ZXh0PjwvZz48ZyBjbGFzcz0ibWVzc2FnZSIgZGF0YS1wYXJ0aWNpcGFudC0xPSJEQiIgZGF0YS1wYXJ0aWNpcGFudC0yPSJCYWNrZW5kIj48cG9seWdvbiBmaWxsPSIjMTgxODE4IiBwb2ludHM9Ijc3Ny41LDEwMzkuODM1OSw3NjcuNSwxMDQzLjgzNTksNzc3LjUsMTA0Ny44MzU5LDc3My41LDEwNDMuODM1OSIgc3R5bGU9InN0cm9rZTojMTgxODE4O3N0cm9rZS13aWR0aDoxOyIvPjxsaW5lIHN0eWxlPSJzdHJva2U6IzE4MTgxODtzdHJva2Utd2lkdGg6MTtzdHJva2UtZGFzaGFycmF5OjIuMCwyLjA7IiB4MT0iNzcxLjUiIHgyPSIxMTc1LjUiIHkxPSIxMDQzLjgzNTkiIHkyPSIxMDQzLjgzNTkiLz48dGV4dCBmaWxsPSIjMDAwMDAwIiBmb250LWZhbWlseT0ic2Fucy1zZXJpZiIgZm9udC1zaXplPSIxMyIgZm9udC13ZWlnaHQ9ImJvbGQiIGxlbmd0aEFkanVzdD0ic3BhY2luZyIgdGV4dExlbmd0aD0iMTkuNSIgeD0iNzgzLjUiIHk9IjEwNDAuMjEwOSI+MjYuPC90ZXh0Pjx0ZXh0IGZpbGw9IiMwMDAwMDAiIGZvbnQtZmFtaWx5PSJzYW5zLXNlcmlmIiBmb250LXNpemU9IjEzIiBsZW5ndGhBZGp1c3Q9InNwYWNpbmciIHRleHRMZW5ndGg9IjE0OS41IiB4PSI4MDciIHk9IjEwNDAuMjEwOSI+My4xLjIuOS4gQ29uZmlybSBJbnNlcnQ8L3RleHQ+PC9nPjxnIGNsYXNzPSJtZXNzYWdlIiBkYXRhLXBhcnRpY2lwYW50LTE9IkJhY2tlbmQiIGRhdGEtcGFydGljaXBhbnQtMj0iVUkiPjxwb2x5Z29uIGZpbGw9IiMxODE4MTgiIHBvaW50cz0iMzU2LDEwODEuNzUsMzQ2LDEwODUuNzUsMzU2LDEwODkuNzUsMzUyLDEwODUuNzUiIHN0eWxlPSJzdHJva2U6IzE4MTgxODtzdHJva2Utd2lkdGg6MTsiLz48bGluZSBzdHlsZT0ic3Ryb2tlOiMxODE4MTg7c3Ryb2tlLXdpZHRoOjE7c3Ryb2tlLWRhc2hhcnJheToyLjAsMi4wOyIgeDE9IjM1MCIgeDI9Ijc2MC41IiB5MT0iMTA4NS43NSIgeTI9IjEwODUuNzUiLz48dGV4dCBmaWxsPSIjMDAwMDAwIiBmb250LWZhbWlseT0ic2Fucy1zZXJpZiIgZm9udC1zaXplPSIxMyIgZm9udC13ZWlnaHQ9ImJvbGQiIGxlbmd0aEFkanVzdD0ic3BhY2luZyIgdGV4dExlbmd0aD0iMTkuNSIgeD0iMzYyIiB5PSIxMDgyLjEyNSI+MjcuPC90ZXh0Pjx0ZXh0IGZpbGw9IiMwMDAwMDAiIGZvbnQtZmFtaWx5PSJzYW5zLXNlcmlmIiBmb250LXNpemU9IjEzIiBsZW5ndGhBZGp1c3Q9InNwYWNpbmciIHRleHRMZW5ndGg9IjM2NCIgeD0iMzg1LjUiIHk9IjEwODIuMTI1Ij4zLjIuIFNlbmQgVG9hc3QgTm90aWZpY2F0aW9uICgiU3VibWl0dGVkIGZvciBhcHByb3ZhbCEiKTwvdGV4dD48L2c+PGcgY2xhc3M9Im1lc3NhZ2UiIGRhdGEtcGFydGljaXBhbnQtMT0iVUkiIGRhdGEtcGFydGljaXBhbnQtMj0iVXNlciI+PHBvbHlnb24gZmlsbD0iIzE4MTgxOCIgcG9pbnRzPSI1OCwxMTA5LjY2NDEsNDgsMTExMy42NjQxLDU4LDExMTcuNjY0MSw1NCwxMTEzLjY2NDEiIHN0eWxlPSJzdHJva2U6IzE4MTgxODtzdHJva2Utd2lkdGg6MTsiLz48bGluZSBzdHlsZT0ic3Ryb2tlOiMxODE4MTg7c3Ryb2tlLXdpZHRoOjE7IiB4MT0iNTIiIHgyPSIzMzkiIHkxPSIxMTEzLjY2NDEiIHkyPSIxMTEzLjY2NDEiLz48dGV4dCBmaWxsPSIjMDAwMDAwIiBmb250LWZhbWlseT0ic2Fucy1zZXJpZiIgZm9udC1zaXplPSIxMyIgZm9udC13ZWlnaHQ9ImJvbGQiIGxlbmd0aEFkanVzdD0ic3BhY2luZyIgdGV4dExlbmd0aD0iMTkuNSIgeD0iNjQiIHk9IjExMTAuMDM5MSI+MjguPC90ZXh0Pjx0ZXh0IGZpbGw9IiMwMDAwMDAiIGZvbnQtZmFtaWx5PSJzYW5zLXNlcmlmIiBmb250LXNpemU9IjEzIiBsZW5ndGhBZGp1c3Q9InNwYWNpbmciIHRleHRMZW5ndGg9IjE2Mi41IiB4PSI4Ny41IiB5PSIxMTEwLjAzOTEiPjMuMy4gRGlzcGxheSBOb3RpZmljYXRpb248L3RleHQ+PC9nPjxyZWN0IGZpbGw9IiNFRUVFRUUiIGhlaWdodD0iMyIgc3R5bGU9InN0cm9rZTojRUVFRUVFO3N0cm9rZS13aWR0aDoxOyIgd2lkdGg9IjEyNTUiIHg9IjAiIHk9IjExNDEuNjIxMSIvPjxsaW5lIHN0eWxlPSJzdHJva2U6IzAwMDAwMDtzdHJva2Utd2lkdGg6MTsiIHgxPSIwIiB4Mj0iMTI1NSIgeTE9IjExNDEuNjIxMSIgeTI9IjExNDEuNjIxMSIvPjxsaW5lIHN0eWxlPSJzdHJva2U6IzAwMDAwMDtzdHJva2Utd2lkdGg6MTsiIHgxPSIwIiB4Mj0iMTI1NSIgeTE9IjExNDQuNjIxMSIgeTI9IjExNDQuNjIxMSIvPjxyZWN0IGZpbGw9IiNFRUVFRUUiIGhlaWdodD0iMjEuOTE0MSIgc3R5bGU9InN0cm9rZTojMDAwMDAwO3N0cm9rZS13aWR0aDoyOyIgd2lkdGg9IjE5NiIgeD0iNTI5LjUiIHk9IjExMzEuNjY0MSIvPjx0ZXh0IGZpbGw9IiMwMDAwMDAiIGZvbnQtZmFtaWx5PSJzYW5zLXNlcmlmIiBmb250LXNpemU9IjEzIiBmb250LXdlaWdodD0iYm9sZCIgbGVuZ3RoQWRqdXN0PSJzcGFjaW5nIiB0ZXh0TGVuZ3RoPSIxNzUuNSIgeD0iNTM1LjUiIHk9IjExNDcuOTUzMSI+R2FtZSBEZXRhaWxzICZhbXA7IFJldmlld3MgRmxvdzwvdGV4dD48ZyBjbGFzcz0ibWVzc2FnZSIgZGF0YS1wYXJ0aWNpcGFudC0xPSJVc2VyIiBkYXRhLXBhcnRpY2lwYW50LTI9IlVJIj48cG9seWdvbiBmaWxsPSIjMTgxODE4IiBwb2ludHM9IjMyMywxMTc5LjQ5MjIsMzMzLDExODMuNDkyMiwzMjMsMTE4Ny40OTIyLDMyNywxMTgzLjQ5MjIiIHN0eWxlPSJzdHJva2U6IzE4MTgxODtzdHJva2Utd2lkdGg6MTsiLz48bGluZSBzdHlsZT0ic3Ryb2tlOiMxODE4MTg7c3Ryb2tlLXdpZHRoOjE7IiB4MT0iNDciIHgyPSIzMjkiIHkxPSIxMTgzLjQ5MjIiIHkyPSIxMTgzLjQ5MjIiLz48dGV4dCBmaWxsPSIjMDAwMDAwIiBmb250LWZhbWlseT0ic2Fucy1zZXJpZiIgZm9udC1zaXplPSIxMyIgZm9udC13ZWlnaHQ9ImJvbGQiIGxlbmd0aEFkanVzdD0ic3BhY2luZyIgdGV4dExlbmd0aD0iMTkuNSIgeD0iNTQiIHk9IjExNzkuODY3MiI+MjkuPC90ZXh0Pjx0ZXh0IGZpbGw9IiMwMDAwMDAiIGZvbnQtZmFtaWx5PSJzYW5zLXNlcmlmIiBmb250LXNpemU9IjEzIiBsZW5ndGhBZGp1c3Q9InNwYWNpbmciIHRleHRMZW5ndGg9IjEzNi41IiB4PSI3Ny41IiB5PSIxMTc5Ljg2NzIiPjQuIFNlbGVjdCBhIEdhbWUgQ2FyZDwvdGV4dD48L2c+PGcgY2xhc3M9Im1lc3NhZ2UiIGRhdGEtcGFydGljaXBhbnQtMT0iVUkiIGRhdGEtcGFydGljaXBhbnQtMj0iUkFXRyI+PHBvbHlnb24gZmlsbD0iIzE4MTgxOCIgcG9pbnRzPSIxMDM2LDEyMDcuNDA2MywxMDQ2LDEyMTEuNDA2MywxMDM2LDEyMTUuNDA2MywxMDQwLDEyMTEuNDA2MyIgc3R5bGU9InN0cm9rZTojMTgxODE4O3N0cm9rZS13aWR0aDoxOyIvPjxsaW5lIHN0eWxlPSJzdHJva2U6IzE4MTgxODtzdHJva2Utd2lkdGg6MTsiIHgxPSIzNDUiIHgyPSIxMDQyIiB5MT0iMTIxMS40MDYzIiB5Mj0iMTIxMS40MDYzIi8+PHRleHQgZmlsbD0iIzAwMDAwMCIgZm9udC1mYW1pbHk9InNhbnMtc2VyaWYiIGZvbnQtc2l6ZT0iMTMiIGZvbnQtd2VpZ2h0PSJib2xkIiBsZW5ndGhBZGp1c3Q9InNwYWNpbmciIHRleHRMZW5ndGg9IjE5LjUiIHg9IjM1MiIgeT0iMTIwNy43ODEzIj4zMC48L3RleHQ+PHRleHQgZmlsbD0iIzAwMDAwMCIgZm9udC1mYW1pbHk9InNhbnMtc2VyaWYiIGZvbnQtc2l6ZT0iMTMiIGxlbmd0aEFkanVzdD0ic3BhY2luZyIgdGV4dExlbmd0aD0iMjc5LjUiIHg9IjM3NS41IiB5PSIxMjA3Ljc4MTMiPjQuMS4gRmV0Y2ggUmljaCBEZXRhaWxzIChpZiBBUEkgaW50ZWdyYXRlZCk8L3RleHQ+PC9nPjxnIGNsYXNzPSJtZXNzYWdlIiBkYXRhLXBhcnRpY2lwYW50LTE9IlVJIiBkYXRhLXBhcnRpY2lwYW50LTI9IkRCIj48cG9seWdvbiBmaWxsPSIjMTgxODE4IiBwb2ludHM9IjExNjQuNSwxMjM1LjMyMDMsMTE3NC41LDEyMzkuMzIwMywxMTY0LjUsMTI0My4zMjAzLDExNjguNSwxMjM5LjMyMDMiIHN0eWxlPSJzdHJva2U6IzE4MTgxODtzdHJva2Utd2lkdGg6MTsiLz48bGluZSBzdHlsZT0ic3Ryb2tlOiMxODE4MTg7c3Ryb2tlLXdpZHRoOjE7IiB4MT0iMzQ1IiB4Mj0iMTE3MC41IiB5MT0iMTIzOS4zMjAzIiB5Mj0iMTIzOS4zMjAzIi8+PHRleHQgZmlsbD0iIzAwMDAwMCIgZm9udC1mYW1pbHk9InNhbnMtc2VyaWYiIGZvbnQtc2l6ZT0iMTMiIGZvbnQtd2VpZ2h0PSJib2xkIiBsZW5ndGhBZGp1c3Q9InNwYWNpbmciIHRleHRMZW5ndGg9IjE5LjUiIHg9IjM1MiIgeT0iMTIzNS42OTUzIj4zMS48L3RleHQ+PHRleHQgZmlsbD0iIzAwMDAwMCIgZm9udC1mYW1pbHk9InNhbnMtc2VyaWYiIGZvbnQtc2l6ZT0iMTMiIGxlbmd0aEFkanVzdD0ic3BhY2luZyIgdGV4dExlbmd0aD0iMjYwIiB4PSIzNzUuNSIgeT0iMTIzNS42OTUzIj40LjIuIEZldGNoIEdhbWUgRGF0YSBhbmQgUmV2aWV3cyBmcm9tIERCPC90ZXh0PjwvZz48ZyBjbGFzcz0ibWVzc2FnZSIgZGF0YS1wYXJ0aWNpcGFudC0xPSJVSSIgZGF0YS1wYXJ0aWNpcGFudC0yPSJVc2VyIj48cG9seWdvbiBmaWxsPSIjMTgxODE4IiBwb2ludHM9IjU4LDEyNjMuMjM0NCw0OCwxMjY3LjIzNDQsNTgsMTI3MS4yMzQ0LDU0LDEyNjcuMjM0NCIgc3R5bGU9InN0cm9rZTojMTgxODE4O3N0cm9rZS13aWR0aDoxOyIvPjxsaW5lIHN0eWxlPSJzdHJva2U6IzE4MTgxODtzdHJva2Utd2lkdGg6MTsiIHgxPSI1MiIgeDI9IjMzOSIgeTE9IjEyNjcuMjM0NCIgeTI9IjEyNjcuMjM0NCIvPjx0ZXh0IGZpbGw9IiMwMDAwMDAiIGZvbnQtZmFtaWx5PSJzYW5zLXNlcmlmIiBmb250LXNpemU9IjEzIiBmb250LXdlaWdodD0iYm9sZCIgbGVuZ3RoQWRqdXN0PSJzcGFjaW5nIiB0ZXh0TGVuZ3RoPSIxOS41IiB4PSI2NCIgeT0iMTI2My42MDk0Ij4zMi48L3RleHQ+PHRleHQgZmlsbD0iIzAwMDAwMCIgZm9udC1mYW1pbHk9InNhbnMtc2VyaWYiIGZvbnQtc2l6ZT0iMTMiIGxlbmd0aEFkanVzdD0ic3BhY2luZyIgdGV4dExlbmd0aD0iMjIxIiB4PSI4Ny41IiB5PSIxMjYzLjYwOTQiPjQuMy4gU2hvdyBHYW1lIERldGFpbHMgYW5kIFJldmlld3M8L3RleHQ+PC9nPjxnIGNsYXNzPSJtZXNzYWdlIiBkYXRhLXBhcnRpY2lwYW50LTE9IlVzZXIiIGRhdGEtcGFydGljaXBhbnQtMj0iVUkiPjxwb2x5Z29uIGZpbGw9IiMxODE4MTgiIHBvaW50cz0iMzIzLDEyOTEuMTQ4NCwzMzMsMTI5NS4xNDg0LDMyMywxMjk5LjE0ODQsMzI3LDEyOTUuMTQ4NCIgc3R5bGU9InN0cm9rZTojMTgxODE4O3N0cm9rZS13aWR0aDoxOyIvPjxsaW5lIHN0eWxlPSJzdHJva2U6IzE4MTgxODtzdHJva2Utd2lkdGg6MTsiIHgxPSI0NyIgeDI9IjMyOSIgeTE9IjEyOTUuMTQ4NCIgeTI9IjEyOTUuMTQ4NCIvPjx0ZXh0IGZpbGw9IiMwMDAwMDAiIGZvbnQtZmFtaWx5PSJzYW5zLXNlcmlmIiBmb250LXNpemU9IjEzIiBmb250LXdlaWdodD0iYm9sZCIgbGVuZ3RoQWRqdXN0PSJzcGFjaW5nIiB0ZXh0TGVuZ3RoPSIxOS41IiB4PSI1NCIgeT0iMTI5MS41MjM0Ij4zMy48L3RleHQ+PHRleHQgZmlsbD0iIzAwMDAwMCIgZm9udC1mYW1pbHk9InNhbnMtc2VyaWYiIGZvbnQtc2l6ZT0iMTMiIGxlbmd0aEFkanVzdD0ic3BhY2luZyIgdGV4dExlbmd0aD0iMTE3IiB4PSI3Ny41IiB5PSIxMjkxLjUyMzQiPjUuIFN1Ym1pdCBhIFJldmlldzwvdGV4dD48L2c+PGcgY2xhc3M9Im1lc3NhZ2UiIGRhdGEtcGFydGljaXBhbnQtMT0iVUkiIGRhdGEtcGFydGljaXBhbnQtMj0iQmFja2VuZCI+PHBvbHlnb24gZmlsbD0iIzE4MTgxOCIgcG9pbnRzPSI3NDQuNSwxMzE5LjA2MjUsNzU0LjUsMTMyMy4wNjI1LDc0NC41LDEzMjcuMDYyNSw3NDguNSwxMzIzLjA2MjUiIHN0eWxlPSJzdHJva2U6IzE4MTgxODtzdHJva2Utd2lkdGg6MTsiLz48bGluZSBzdHlsZT0ic3Ryb2tlOiMxODE4MTg7c3Ryb2tlLXdpZHRoOjE7IiB4MT0iMzQ1IiB4Mj0iNzUwLjUiIHkxPSIxMzIzLjA2MjUiIHkyPSIxMzIzLjA2MjUiLz48dGV4dCBmaWxsPSIjMDAwMDAwIiBmb250LWZhbWlseT0ic2Fucy1zZXJpZiIgZm9udC1zaXplPSIxMyIgZm9udC13ZWlnaHQ9ImJvbGQiIGxlbmd0aEFkanVzdD0ic3BhY2luZyIgdGV4dExlbmd0aD0iMTkuNSIgeD0iMzUyIiB5PSIxMzE5LjQzNzUiPjM0LjwvdGV4dD48dGV4dCBmaWxsPSIjMDAwMDAwIiBmb250LWZhbWlseT0ic2Fucy1zZXJpZiIgZm9udC1zaXplPSIxMyIgbGVuZ3RoQWRqdXN0PSJzcGFjaW5nIiB0ZXh0TGVuZ3RoPSIyNTMuNSIgeD0iMzc1LjUiIHk9IjEzMTkuNDM3NSI+NS4xLiBTZW5kIFJldmlldyBEYXRhIChyYXRpbmcsIGNvbW1lbnQpPC90ZXh0PjwvZz48ZyBjbGFzcz0ibWVzc2FnZSIgZGF0YS1wYXJ0aWNpcGFudC0xPSJCYWNrZW5kIiBkYXRhLXBhcnRpY2lwYW50LTI9IkRCIj48cG9seWdvbiBmaWxsPSIjMTgxODE4IiBwb2ludHM9IjExNjQuNSwxMzQ2Ljk3NjYsMTE3NC41LDEzNTAuOTc2NiwxMTY0LjUsMTM1NC45NzY2LDExNjguNSwxMzUwLjk3NjYiIHN0eWxlPSJzdHJva2U6IzE4MTgxODtzdHJva2Utd2lkdGg6MTsiLz48bGluZSBzdHlsZT0ic3Ryb2tlOiMxODE4MTg7c3Ryb2tlLXdpZHRoOjE7IiB4MT0iNzY2LjUiIHgyPSIxMTcwLjUiIHkxPSIxMzUwLjk3NjYiIHkyPSIxMzUwLjk3NjYiLz48dGV4dCBmaWxsPSIjMDAwMDAwIiBmb250LWZhbWlseT0ic2Fucy1zZXJpZiIgZm9udC1zaXplPSIxMyIgZm9udC13ZWlnaHQ9ImJvbGQiIGxlbmd0aEFkanVzdD0ic3BhY2luZyIgdGV4dExlbmd0aD0iMTkuNSIgeD0iNzczLjUiIHk9IjEzNDcuMzUxNiI+MzUuPC90ZXh0Pjx0ZXh0IGZpbGw9IiMwMDAwMDAiIGZvbnQtZmFtaWx5PSJzYW5zLXNlcmlmIiBmb250LXNpemU9IjEzIiBsZW5ndGhBZGp1c3Q9InNwYWNpbmciIHRleHRMZW5ndGg9IjIzNCIgeD0iNzk3IiB5PSIxMzQ3LjM1MTYiPjUuMS4xLiBGaW5kIEdhbWUgYW5kIFB1c2ggTmV3IFJldmlldzwvdGV4dD48L2c+PGcgY2xhc3M9Im1lc3NhZ2UiIGRhdGEtcGFydGljaXBhbnQtMT0iREIiIGRhdGEtcGFydGljaXBhbnQtMj0iQmFja2VuZCI+PHBvbHlnb24gZmlsbD0iIzE4MTgxOCIgcG9pbnRzPSI3NzcuNSwxMzc0Ljg5MDYsNzY3LjUsMTM3OC44OTA2LDc3Ny41LDEzODIuODkwNiw3NzMuNSwxMzc4Ljg5MDYiIHN0eWxlPSJzdHJva2U6IzE4MTgxODtzdHJva2Utd2lkdGg6MTsiLz48bGluZSBzdHlsZT0ic3Ryb2tlOiMxODE4MTg7c3Ryb2tlLXdpZHRoOjE7c3Ryb2tlLWRhc2hhcnJheToyLjAsMi4wOyIgeDE9Ijc3MS41IiB4Mj0iMTE3NS41IiB5MT0iMTM3OC44OTA2IiB5Mj0iMTM3OC44OTA2Ii8+PHRleHQgZmlsbD0iIzAwMDAwMCIgZm9udC1mYW1pbHk9InNhbnMtc2VyaWYiIGZvbnQtc2l6ZT0iMTMiIGZvbnQtd2VpZ2h0PSJib2xkIiBsZW5ndGhBZGp1c3Q9InNwYWNpbmciIHRleHRMZW5ndGg9IjE5LjUiIHg9Ijc4My41IiB5PSIxMzc1LjI2NTYiPjM2LjwvdGV4dD48dGV4dCBmaWxsPSIjMDAwMDAwIiBmb250LWZhbWlseT0ic2Fucy1zZXJpZiIgZm9udC1zaXplPSIxMyIgbGVuZ3RoQWRqdXN0PSJzcGFjaW5nIiB0ZXh0TGVuZ3RoPSIxNTYiIHg9IjgwNyIgeT0iMTM3NS4yNjU2Ij41LjEuMi4gQ29uZmlybSBTYXZlIChPSyk8L3RleHQ+PC9nPjxnIGNsYXNzPSJtZXNzYWdlIiBkYXRhLXBhcnRpY2lwYW50LTE9IkJhY2tlbmQiIGRhdGEtcGFydGljaXBhbnQtMj0iVUkiPjxwb2x5Z29uIGZpbGw9IiMxODE4MTgiIHBvaW50cz0iMzU2LDE0MDIuODA0NywzNDYsMTQwNi44MDQ3LDM1NiwxNDEwLjgwNDcsMzUyLDE0MDYuODA0NyIgc3R5bGU9InN0cm9rZTojMTgxODE4O3N0cm9rZS13aWR0aDoxOyIvPjxsaW5lIHN0eWxlPSJzdHJva2U6IzE4MTgxODtzdHJva2Utd2lkdGg6MTtzdHJva2UtZGFzaGFycmF5OjIuMCwyLjA7IiB4MT0iMzUwIiB4Mj0iNzYwLjUiIHkxPSIxNDA2LjgwNDciIHkyPSIxNDA2LjgwNDciLz48dGV4dCBmaWxsPSIjMDAwMDAwIiBmb250LWZhbWlseT0ic2Fucy1zZXJpZiIgZm9udC1zaXplPSIxMyIgZm9udC13ZWlnaHQ9ImJvbGQiIGxlbmd0aEFkanVzdD0ic3BhY2luZyIgdGV4dExlbmd0aD0iMTkuNSIgeD0iMzYyIiB5PSIxNDAzLjE3OTciPjM3LjwvdGV4dD48dGV4dCBmaWxsPSIjMDAwMDAwIiBmb250LWZhbWlseT0ic2Fucy1zZXJpZiIgZm9udC1zaXplPSIxMyIgbGVuZ3RoQWRqdXN0PSJzcGFjaW5nIiB0ZXh0TGVuZ3RoPSIyMjcuNSIgeD0iMzg1LjUiIHk9IjE0MDMuMTc5NyI+NS4yLiBSZXR1cm4gVXBkYXRlZCBMaXN0IG9mIFJldmlld3M8L3RleHQ+PC9nPjxnIGNsYXNzPSJtZXNzYWdlIiBkYXRhLXBhcnRpY2lwYW50LTE9IlVJIiBkYXRhLXBhcnRpY2lwYW50LTI9IlVzZXIiPjxwb2x5Z29uIGZpbGw9IiMxODE4MTgiIHBvaW50cz0iNTgsMTQzMC43MTg4LDQ4LDE0MzQuNzE4OCw1OCwxNDM4LjcxODgsNTQsMTQzNC43MTg4IiBzdHlsZT0ic3Ryb2tlOiMxODE4MTg7c3Ryb2tlLXdpZHRoOjE7Ii8+PGxpbmUgc3R5bGU9InN0cm9rZTojMTgxODE4O3N0cm9rZS13aWR0aDoxOyIgeDE9IjUyIiB4Mj0iMzM5IiB5MT0iMTQzNC43MTg4IiB5Mj0iMTQzNC43MTg4Ii8+PHRleHQgZmlsbD0iIzAwMDAwMCIgZm9udC1mYW1pbHk9InNhbnMtc2VyaWYiIGZvbnQtc2l6ZT0iMTMiIGZvbnQtd2VpZ2h0PSJib2xkIiBsZW5ndGhBZGp1c3Q9InNwYWNpbmciIHRleHRMZW5ndGg9IjE5LjUiIHg9IjY0IiB5PSIxNDMxLjA5MzgiPjM4LjwvdGV4dD48dGV4dCBmaWxsPSIjMDAwMDAwIiBmb250LWZhbWlseT0ic2Fucy1zZXJpZiIgZm9udC1zaXplPSIxMyIgbGVuZ3RoQWRqdXN0PSJzcGFjaW5nIiB0ZXh0TGVuZ3RoPSIxODIiIHg9Ijg3LjUiIHk9IjE0MzEuMDkzOCI+NS4zLiBEaXNwbGF5IFVwZGF0ZWQgUmV2aWV3czwvdGV4dD48L2c+PCEtLVNSQz1bWkxSUlJrQ3M0N3ROTHgwa0tEajB1dEdKa3BUaTBaWHNkNXFxNndUbnFnOTBOc1hmQkJFWElQTWFhaFo1X2RqZEk0Y01SNnJJRm1ZNlRDdlNwYnA4QmZpQWRYZy1PVlYySU9XU0ZUYjRJeWNOc2QwZGpBZUdILW9BUnUwamo1QldNRV8xV2M1cDlSVnpBRWdvWFRpWXlMQWprT2ZYMHloUG8zdUFiTjVZdWpFOU02SFNFVlBsbkYxdG1VRjdyRVhTOVVYQjZ0T2pxaE14YTNjNGh6ZWFPQzhOX185cHBIWUY3UnYtblNvTDBMMDdUaUJSa2c2NEV4eGE1YndwekdUOGdQeUZaQ3FETHNhcEIwal92dTJ2NXpRa3E1QnMwSlhJUGJndkdGand2N3lVUzJyTVMycUtyQ3NNdHAtSmVmVUFCcjVJZFprem1LQjRSMnQwUzFFbEhTbWJLX2JjMktRZWJBc0c2M1NBUGdhTTRINDNZZE5VQnktXzZ4bV9OZnZ0b0Y4S0xrWU9aS2I4b3hYQXNFc2tHOVJydmlrXzg3UU9QQ2dMLUNWUng0VDFUWWZ3TDJ6ZHZteG0ydGx1LUFWZ3BHbmMyWWhmVG5ZdC1BZTlsN3A5MzVaaFRLT0d1WFRXZGkwNFRGNXNwX1J1em9pc2xZTlJib3lFWkNCNFlJSFkyMm0ySDVLVEV2LXFJbE5xV2VzVHYxUDlxLTlCMDR5bGVrWmlaN3RHc0NJdEYwS3NtekFvaXhGOFRfQkhFS1JDVmNSbDFjb1VXVGgxQTdGbm4xckdIV1gxZTgtQmUwWVVXT2xOeER2V3k1R0Q2WDVSbTMwSTBmc0tlNE1VZmMwVDkwc0t6cXd1cW02RWNpcWF0bVJkcHlBajJzRzJ6STBlWXNrVDJkTXk0QWRBaV9QNHFFcjRZbFluME1yOWZiM1VDcDJWMVZzVjY0WG1YV01OVGlTZUlyR0lvV285WGlKVmsxRzl1T3hQV1p6MVE5TUFaRThaLUVaMDdxUHYxb3V0MmpNOU8tb0Z1bmFOQ1pUR3BuZDliVERUVWFXVHZzdlQ0a2s0Q2pJNm1ZVWF5NkFES2c0WUFJSDcwZnF3WEJWOEVxdjJhVGdiOUprWGJlbTdNMF9MR2UzMl9fck5ESnViZ0lQaG1CZzhMVTFVbFdZQk91VkhPOXZsZ2RxUXJGdXIxeEZyaXYtSVpVTk0tcHdzQ2EtWlk0aU5KOC1ibUhNcUJMcHVsTkRHWE0zbU5MSzdab3JSa1RnQ1hvNldfMC1QQnRZTjltYWE1emlrTW1jR0lNWlN0REF5NVhRLXUxSHJkNllyNGNQSmM4ZjB1WHB4cUFTUUJCbEhCaUlwN3FTbldRVGIxLTdraktORUt0M09HUFFqWkR4R3lsMUtLZ0pTOVdZdGNMUTkzTzdJYWwwTy1kZENPUVdkRE5zMmFwZ2ZKSF9WZGR1RTJDZ1NQanRSaTJCeUg3Vno2T2pSNWRUaFBRVExmUEV3SVh5TGdYaDR5NGZMQVNyeW9qV0REcGV1ZEQ1MVRYWlhoZUY5eWQxMDJlbExiYnhnNUxpTGVyVkk2a0NKQUFDMWtxTFhDLVR4eG5ETkVVdGFWQmFIcmpQcHNQaU5lZHVfbTNFRGZnSEhmYzEyUmxVU3hlbG1HeDZQMmVfX2ptV18zV2hESWc4Tkh3WTNVaG5MWDlfUVl1MFFEdVBxYl81OTRWMnp2allQTmNPeWtGdHZ0RWp1bUhvVDFBR1lwcEFaZHhaeWdqRF9TdWNUcmUtOWtqTU05VFJHLUhsaXRvUzFweFB6ZkdxZk42aDhTZ0REazRjLVZGR0RUcVZWZFMxN3dRTTdJdXR3NEhLNmwzSFlYbHR3T0paUzdPUEwxVnE1ZjhwRDNvc2ttS1JFbXNmbkRwQWd5VlFKUndHczZlRzZmVEcyX2pLREZRZkVtRzBFR1ZSZVJnTklSXzZnalE3aFJWX2pKSnFBUXRLY0w3Nk0tOWpNUmpWaTFncU1hSG9xc29ZaWpCQlBfMGhmcE5fZjdfUk9nN1B1WGxNUHVBcUljbXFka0tNTnJkT1FyVGtmREQ4Z3dkeTBdLS0+PC9nPjwvc3ZnPg==;" vertex="1" parent="1">
            <mxGeometry x="-1590" y="-1570" width="1262" height="1544" as="geometry" />
          </mxCell>
        </UserObject>
      </root>
    </mxGraphModel>
  </diagram>
</mxfile>
